<svg width="22" height="21" viewBox="0 0 22 21" fill="none" xmlns="http://www.w3.org/2000/svg">
<circle cx="11.1543" cy="10.282" r="10.2761" fill="#F9D052"/>
<path d="M15.9859 10.2819C15.9859 10.4357 15.9248 10.5831 15.8161 10.6919C15.7073 10.8006 15.5599 10.8617 15.4061 10.8617H11.734V14.5338C11.734 14.6875 11.6729 14.835 11.5642 14.9438C11.4555 15.0525 11.308 15.1136 11.1542 15.1136C11.0004 15.1136 10.853 15.0525 10.7442 14.9438C10.6355 14.835 10.5744 14.6875 10.5744 14.5338V10.8617H6.90231C6.74854 10.8617 6.60106 10.8006 6.49233 10.6919C6.3836 10.5831 6.32251 10.4357 6.32251 10.2819C6.32251 10.1281 6.3836 9.98064 6.49233 9.8719C6.60106 9.76317 6.74854 9.70208 6.90231 9.70208H10.5744V6.03C10.5744 5.87623 10.6355 5.72875 10.7442 5.62002C10.853 5.51128 11.0004 5.4502 11.1542 5.4502C11.308 5.4502 11.4555 5.51128 11.5642 5.62002C11.6729 5.72875 11.734 5.87623 11.734 6.03V9.70208H15.4061C15.5599 9.70208 15.7073 9.76317 15.8161 9.8719C15.9248 9.98064 15.9859 10.1281 15.9859 10.2819Z" fill="#1B1D1C"/>
</svg>
