<svg width="21" height="22" viewBox="0 0 21 22" fill="none" xmlns="http://www.w3.org/2000/svg">
<path fill-rule="evenodd" clip-rule="evenodd" d="M3.48593 0.232368C2.14179 0.525761 1.11102 1.48954 0.786607 2.75623C0.708728 3.06045 0.706055 3.37202 0.706055 12.1733C0.706055 21.037 0.708177 21.2798 0.78682 21.4332C0.88889 21.6324 1.02508 21.7598 1.22519 21.8434C1.36525 21.902 2.27963 21.9092 9.60827 21.9092H17.8341L18.0211 21.8136C18.1239 21.7611 18.2664 21.6447 18.3378 21.5549C18.4555 21.4069 18.4675 21.3633 18.4675 21.0848C18.4675 20.83 18.4501 20.7524 18.3653 20.6285C18.2375 20.4419 18.0324 20.299 17.8225 20.2503C17.7325 20.2294 14.3025 20.2124 10.0711 20.2118L2.4811 20.2108L2.50852 20.0303C2.55274 19.7395 2.8042 19.2671 3.02141 19.0668C3.12845 18.9681 3.34362 18.8268 3.49951 18.753L3.78301 18.6186L11.6982 18.5973L19.6134 18.5761L19.7897 18.4818C19.971 18.3848 20.2212 18.1185 20.2387 18.0039C20.2441 17.9683 20.2596 18.6939 20.2731 19.6164C20.2867 20.5388 20.296 16.6984 20.2938 11.0821C20.2902 1.4149 20.286 0.861614 20.2149 0.701372C20.1156 0.47723 19.9896 0.345564 19.7832 0.250285C19.62 0.17492 19.3062 0.171991 11.677 0.174326C5.30206 0.176321 3.69045 0.187743 3.48593 0.232368ZM5.88383 7.60176V13.3794L6.26504 13.1118C6.4747 12.9646 7.55218 12.2081 8.65942 11.4308L10.6726 10.0175L12.8434 11.728C14.0373 12.6688 15.032 13.445 15.0539 13.4528C15.0787 13.4616 15.0897 11.2646 15.0831 7.65709L15.0723 1.84718L14.2555 1.83563L13.4387 1.82412L13.4279 5.96088L13.4171 10.0976L12.3303 9.24179C11.7326 8.77105 11.1282 8.29542 10.9872 8.18486L10.7309 7.98381L9.15899 9.08711C8.29443 9.69394 7.57637 10.1904 7.56326 10.1904C7.55015 10.1904 7.53457 8.31321 7.52863 6.0188L7.51781 1.84718L6.70082 1.83563L5.88383 1.82412V7.60176ZM0.726893 12.1648C0.726893 17.2089 0.731859 19.2662 0.737885 16.7364C0.743912 14.2066 0.743912 10.0796 0.737885 7.56516C0.731816 5.05081 0.726893 7.12062 0.726893 12.1648Z" fill="#F9D052"/>
<path fill-rule="evenodd" clip-rule="evenodd" d="M5.88379 7.60186V13.3795L6.26499 13.1119C6.47465 12.9647 7.55214 12.2082 8.65938 11.4309L10.6726 10.0176L12.8433 11.7281C14.0372 12.6689 15.032 13.4451 15.0539 13.4529C15.0786 13.4617 15.0897 11.2647 15.083 7.65718L15.0722 1.84727L14.2555 1.83573L13.4387 1.82422L13.4279 5.96098L13.417 10.0977L12.3303 9.24189C11.7326 8.77115 11.1282 8.29552 10.9872 8.18495L10.7308 7.98391L9.15895 9.08721C8.29438 9.69404 7.57633 10.1905 7.56321 10.1905C7.5501 10.1905 7.53452 8.31331 7.52858 6.01889L7.51776 1.84727L6.70077 1.83573L5.88379 1.82422V7.60186Z" fill="#1E1D1C"/>
</svg>
