<svg width="25" height="26" viewBox="0 0 25 26" fill="none" xmlns="http://www.w3.org/2000/svg">
<path d="M7.75856 2.59892C7.9516 2.59927 8.14464 2.59848 8.33768 2.59785C8.71473 2.59681 9.09178 2.59681 9.46884 2.5972C9.7753 2.59751 10.0818 2.59745 10.3882 2.59714C10.432 2.5971 10.4757 2.59705 10.5208 2.59701C10.6097 2.59692 10.6986 2.59683 10.7874 2.59674C11.619 2.59593 12.4505 2.59635 13.282 2.59717C14.0424 2.59789 14.8028 2.59718 15.5633 2.59578C16.3452 2.59435 17.1271 2.59381 17.9091 2.59428C17.9975 2.59433 18.0859 2.59438 18.1744 2.59442C18.2179 2.59445 18.2614 2.59447 18.3062 2.59449C18.6124 2.5946 18.9186 2.59412 19.2248 2.59341C19.5977 2.59256 19.9707 2.59257 20.3436 2.59367C20.5338 2.59421 20.724 2.59437 20.9142 2.59346C21.0884 2.59265 21.2626 2.59296 21.4368 2.59415C21.5294 2.5945 21.622 2.59366 21.7146 2.59277C22.0604 2.59654 22.2993 2.63674 22.5645 2.86812C22.769 3.08843 22.8135 3.24466 22.8139 3.54063C22.8141 3.60018 22.8142 3.65973 22.8144 3.72108C22.8144 3.78751 22.8144 3.85394 22.8143 3.92038C22.8144 3.99068 22.8146 4.06098 22.8147 4.13128C22.8151 4.32493 22.8152 4.51858 22.8153 4.71224C22.8153 4.92091 22.8157 5.12958 22.816 5.33825C22.8167 5.79475 22.817 6.25124 22.8172 6.70774C22.8173 6.99266 22.8175 7.27758 22.8178 7.5625C22.8184 8.35105 22.8189 9.13959 22.819 9.92814C22.819 9.97862 22.819 10.0291 22.8191 10.0811C22.8191 10.1317 22.8191 10.1823 22.8191 10.2345C22.8191 10.337 22.8191 10.4396 22.8192 10.5421C22.8192 10.593 22.8192 10.6439 22.8192 10.6963C22.8194 11.5208 22.8202 12.3453 22.8214 13.1698C22.8225 14.0159 22.8231 14.862 22.8232 15.7081C22.8232 16.1833 22.8235 16.6585 22.8244 17.1337C22.8251 17.5383 22.8254 17.9429 22.825 18.3476C22.8248 18.554 22.8248 18.7605 22.8255 18.967C22.8261 19.156 22.8261 19.345 22.8255 19.534C22.8254 19.6024 22.8255 19.6709 22.826 19.7393C22.8265 19.8322 22.826 19.9252 22.8256 20.0181C22.8256 20.0698 22.8256 20.1214 22.8256 20.1746C22.7942 20.4262 22.6869 20.6138 22.4916 20.7728C22.4631 20.7967 22.4345 20.8206 22.4051 20.8452C22.2463 20.956 22.1054 20.9582 21.9181 20.9584C21.8644 20.9586 21.8106 20.9588 21.7552 20.9589C21.6663 20.9589 21.6663 20.9589 21.5755 20.9588C21.5127 20.9589 21.4499 20.9591 21.3852 20.9592C21.2105 20.9596 21.0358 20.9597 20.861 20.9597C20.6727 20.9598 20.4844 20.9601 20.2961 20.9605C19.9695 20.961 19.643 20.9614 19.3165 20.9618C18.8001 20.9623 18.2837 20.9633 17.7673 20.9643C17.5907 20.9647 17.414 20.9651 17.2373 20.9654C17.1932 20.9655 17.149 20.9656 17.1035 20.9657C16.6006 20.9667 16.0978 20.9676 15.5949 20.9685C15.5489 20.9686 15.5029 20.9687 15.4556 20.9687C14.7113 20.97 13.967 20.9709 13.2227 20.9717C12.4583 20.9726 11.694 20.974 10.9296 20.9759C10.4583 20.977 9.98703 20.9777 9.51574 20.9778C9.19242 20.9779 8.8691 20.9785 8.54578 20.9795C8.35942 20.9801 8.17305 20.9805 7.98668 20.9802C7.78421 20.9799 7.58175 20.9807 7.37928 20.9816C7.32095 20.9814 7.26263 20.9811 7.20253 20.9808C6.63824 20.9852 6.10578 21.0789 5.65449 21.4382C5.31139 21.7879 5.18611 22.129 5.11997 22.6049C5.15211 22.6048 5.18425 22.6048 5.21736 22.6047C7.12205 22.6003 9.02673 22.597 10.9314 22.595C11.1601 22.5947 11.3888 22.5945 11.6175 22.5942C11.663 22.5942 11.7086 22.5941 11.7555 22.5941C12.4927 22.5932 13.2299 22.5917 13.9671 22.5899C14.7235 22.5881 15.48 22.587 16.2364 22.5866C16.7032 22.5863 17.17 22.5855 17.6367 22.5839C17.9568 22.5829 18.2769 22.5826 18.5969 22.5828C18.7816 22.583 18.9663 22.5828 19.151 22.5817C19.3513 22.5806 19.5516 22.581 19.7519 22.5815C19.8101 22.581 19.8684 22.5804 19.9284 22.5798C20.2887 22.5824 20.5749 22.6213 20.8463 22.8733C21.003 23.0436 21.0282 23.2068 21.0369 23.4344C21.0227 23.7512 20.9286 23.91 20.6968 24.1241C20.4811 24.2714 20.3059 24.3185 20.0456 24.3189C19.9885 24.3192 19.9315 24.3195 19.8726 24.3198C19.8101 24.3197 19.7476 24.3195 19.6832 24.3194C19.6159 24.3195 19.5487 24.3198 19.4814 24.32C19.2967 24.3206 19.1119 24.3206 18.9272 24.3205C18.7279 24.3205 18.5286 24.321 18.3293 24.3215C17.9389 24.3223 17.5485 24.3225 17.158 24.3226C16.8407 24.3226 16.5233 24.3228 16.2059 24.3231C15.3061 24.324 14.4062 24.3245 13.5064 24.3244C13.4336 24.3244 13.4336 24.3244 13.3594 24.3244C13.3108 24.3244 13.2622 24.3244 13.2122 24.3244C12.425 24.3243 11.6379 24.3252 10.8508 24.3266C10.0426 24.328 9.23433 24.3287 8.4261 24.3286C7.97235 24.3286 7.5186 24.3288 7.06485 24.3299C6.67848 24.3308 6.29212 24.331 5.90575 24.3303C5.70867 24.33 5.5116 24.33 5.31452 24.3308C5.13395 24.3316 4.9534 24.3315 4.77283 24.3306C4.67689 24.3304 4.58094 24.3311 4.485 24.3319C4.14595 24.3293 3.85256 24.3061 3.56503 24.1119C3.32107 23.8517 3.26745 23.6295 3.26722 23.2762C3.26707 23.2141 3.26691 23.1519 3.26675 23.0878C3.26682 23.0187 3.2669 22.9495 3.26698 22.8804C3.26689 22.8071 3.26678 22.7337 3.26664 22.6604C3.26635 22.4585 3.26635 22.2567 3.26641 22.0548C3.26642 21.8372 3.26615 21.6196 3.26592 21.402C3.26552 20.9756 3.26539 20.5491 3.26536 20.1226C3.26534 19.7758 3.26524 19.429 3.26508 19.0823C3.26465 18.0991 3.26443 17.1159 3.26447 16.1328C3.26447 16.0797 3.26447 16.0267 3.26447 15.9721C3.26447 15.919 3.26448 15.8659 3.26448 15.8112C3.2645 14.9514 3.26403 14.0915 3.26335 13.2317C3.26265 12.3488 3.26231 11.4659 3.26236 10.583C3.26237 10.0874 3.26224 9.59172 3.26172 9.09607C3.26127 8.67388 3.26117 8.2517 3.2615 7.82952C3.26166 7.61423 3.26166 7.39893 3.26124 7.18364C3.26085 6.98626 3.26093 6.78888 3.26135 6.59149C3.26142 6.52037 3.26133 6.44924 3.26106 6.37812C3.25723 5.30387 3.52051 4.41525 4.26582 3.61763C5.27269 2.6729 6.44835 2.59515 7.75856 2.59892ZM5.52408 4.88992C5.15965 5.27633 5.09114 5.71704 5.0966 6.23086C5.09643 6.28865 5.09627 6.34643 5.0961 6.40597C5.09583 6.56507 5.09643 6.72413 5.09741 6.88322C5.09826 7.05526 5.09797 7.22731 5.09782 7.39935C5.09772 7.697 5.09833 7.99464 5.09942 8.29228C5.10101 8.72262 5.10151 9.15295 5.10175 9.58329C5.10218 10.2816 5.10347 10.9799 5.10531 11.6781C5.1071 12.3562 5.10847 13.0343 5.1093 13.7124C5.10935 13.7543 5.1094 13.7961 5.10945 13.8392C5.1097 14.0491 5.10995 14.259 5.11019 14.4689C5.11221 16.2086 5.11563 17.9484 5.11997 19.6881C5.15599 19.6723 5.19201 19.6564 5.22912 19.6401C6.10171 19.2779 6.96133 19.2772 7.89309 19.2782C8.0721 19.2782 8.2511 19.2774 8.4301 19.2767C8.7764 19.2755 9.12269 19.275 9.46898 19.2747C9.87018 19.2744 10.2714 19.2731 10.6726 19.2719C11.7301 19.2691 12.7877 19.2675 13.8453 19.2658C16.2095 19.2608 18.5737 19.2558 21.0096 19.2506C21.0096 14.3257 21.0096 9.4007 21.0096 4.3265C19.9031 4.3265 18.7967 4.3265 17.6567 4.3265C17.6567 8.14455 17.6567 11.9626 17.6567 15.8963C17.0523 15.4566 17.0523 15.4566 16.776 15.231C16.515 15.0199 16.2507 14.814 15.9833 14.6111C15.7109 14.4043 15.4429 14.1931 15.1785 13.9761C14.8795 13.7308 14.5758 13.4927 14.267 13.2599C14.0978 13.1322 13.9314 13.0026 13.769 12.8662C13.7383 12.8408 13.7075 12.8153 13.6759 12.7891C13.6182 12.7411 13.5611 12.6924 13.5046 12.6429C13.4199 12.5696 13.4199 12.5696 13.2834 12.4934C13.1021 12.546 12.9598 12.6383 12.8064 12.7464C12.7618 12.7777 12.7171 12.809 12.6711 12.8412C12.6236 12.8748 12.5761 12.9085 12.5272 12.9431C12.4777 12.9779 12.4282 13.0126 12.3772 13.0485C12.2751 13.1202 12.173 13.1921 12.071 13.264C11.8941 13.3888 11.7166 13.5128 11.5392 13.6368C11.1713 13.8938 10.8044 14.1524 10.4379 14.4115C10.168 14.6022 9.89758 14.7922 9.62689 14.9818C9.58902 15.0084 9.55116 15.0349 9.51214 15.0622C9.18271 15.2929 8.85201 15.5215 8.52142 15.7505C8.50538 11.9806 8.48935 8.21066 8.47282 4.3265C6.82301 4.20729 6.82301 4.20729 5.52408 4.88992ZM10.125 4.3265C10.125 7.05368 10.125 9.78085 10.125 12.5907C10.3924 12.44 10.3924 12.44 10.6449 12.2736C10.676 12.2514 10.7072 12.2292 10.7392 12.2064C10.772 12.1828 10.8049 12.1592 10.8386 12.1349C10.9119 12.0828 10.9852 12.0306 11.0585 11.9785C11.1156 11.9378 11.1156 11.9378 11.1738 11.8962C11.4113 11.7275 11.6501 11.5605 11.8894 11.3943C12.1058 11.2437 12.32 11.0909 12.5322 10.9344C12.5761 10.9025 12.62 10.8705 12.6653 10.8376C12.7498 10.7759 12.8339 10.7136 12.9173 10.6506C12.9554 10.623 12.9935 10.5955 13.0327 10.5672C13.066 10.5425 13.0992 10.5178 13.1335 10.4923C13.2348 10.4517 13.2348 10.4517 13.3587 10.4853C13.4647 10.5419 13.551 10.5973 13.6426 10.6745C13.6726 10.6994 13.7026 10.7243 13.7336 10.75C13.7654 10.7769 13.7973 10.8038 13.8301 10.8315C14.1051 11.0595 14.3833 11.2815 14.6683 11.4969C14.9909 11.7408 15.3058 11.9926 15.6159 12.2523C15.7661 12.3949 15.7661 12.3949 15.956 12.4448C15.956 9.76578 15.956 7.08674 15.956 4.3265C14.0318 4.3265 12.1075 4.3265 10.125 4.3265Z" fill="#A0A0A0"/>
</svg>
