<svg width="16" height="16" viewBox="0 0 16 16" fill="none" xmlns="http://www.w3.org/2000/svg">
<path d="M13.6 1.74536H12V0.995361C12 0.796449 11.9157 0.605683 11.7657 0.465031C11.6157 0.324379 11.4122 0.245361 11.2 0.245361C10.9878 0.245361 10.7843 0.324379 10.6343 0.465031C10.4843 0.605683 10.4 0.796449 10.4 0.995361V1.74536H5.6V0.995361C5.6 0.796449 5.51571 0.605683 5.36569 0.465031C5.21566 0.324379 5.01217 0.245361 4.8 0.245361C4.58783 0.245361 4.38434 0.324379 4.23431 0.465031C4.08429 0.605683 4 0.796449 4 0.995361V1.74536H2.4C1.76348 1.74536 1.15303 1.98241 0.702944 2.40437C0.252856 2.82633 0 3.39862 0 3.99536V12.9954C0 13.5921 0.252856 14.1644 0.702944 14.5864C1.15303 15.0083 1.76348 15.2454 2.4 15.2454H13.6C14.2365 15.2454 14.847 15.0083 15.2971 14.5864C15.7471 14.1644 16 13.5921 16 12.9954V3.99536C16 3.39862 15.7471 2.82633 15.2971 2.40437C14.847 1.98241 14.2365 1.74536 13.6 1.74536ZM14.4 12.9954C14.4 13.1943 14.3157 13.385 14.1657 13.5257C14.0157 13.6663 13.8122 13.7454 13.6 13.7454H2.4C2.18783 13.7454 1.98434 13.6663 1.83431 13.5257C1.68429 13.385 1.6 13.1943 1.6 12.9954V7.74536H14.4V12.9954ZM14.4 6.24536H1.6V3.99536C1.6 3.79645 1.68429 3.60568 1.83431 3.46503C1.98434 3.32438 2.18783 3.24536 2.4 3.24536H4V3.99536C4 4.19427 4.08429 4.38504 4.23431 4.52569C4.38434 4.66634 4.58783 4.74536 4.8 4.74536C5.01217 4.74536 5.21566 4.66634 5.36569 4.52569C5.51571 4.38504 5.6 4.19427 5.6 3.99536V3.24536H10.4V3.99536C10.4 4.19427 10.4843 4.38504 10.6343 4.52569C10.7843 4.66634 10.9878 4.74536 11.2 4.74536C11.4122 4.74536 11.6157 4.66634 11.7657 4.52569C11.9157 4.38504 12 4.19427 12 3.99536V3.24536H13.6C13.8122 3.24536 14.0157 3.32438 14.1657 3.46503C14.3157 3.60568 14.4 3.79645 14.4 3.99536V6.24536Z" fill="#F9D052"/>
</svg>
