<svg width="32" height="28" viewBox="0 0 32 28" fill="none" xmlns="http://www.w3.org/2000/svg">
<path d="M16 20.125C18.4162 20.125 20.375 17.9704 20.375 15.3125C20.375 12.6546 18.4162 10.5 16 10.5C13.5838 10.5 11.625 12.6546 11.625 15.3125C11.625 17.9704 13.5838 20.125 16 20.125Z" fill="#F9D052"/>
<path d="M28.6 3.11111H23.6073L21.6543 1.01111C21.0715 0.373333 20.221 0 19.339 0H12.661C11.779 0 10.9285 0.373333 10.33 1.01111L8.39275 3.11111H3.4C1.6675 3.11111 0.25 4.51111 0.25 6.22222V24.8889C0.25 26.6 1.6675 28 3.4 28H28.6C30.3325 28 31.75 26.6 31.75 24.8889V6.22222C31.75 4.51111 30.3325 3.11111 28.6 3.11111ZM16 23.3333C11.653 23.3333 8.125 19.8489 8.125 15.5556C8.125 11.2622 11.653 7.77778 16 7.77778C20.347 7.77778 23.875 11.2622 23.875 15.5556C23.875 19.8489 20.347 23.3333 16 23.3333Z" fill="#F9D052"/>
</svg>
