<svg width="25" height="25" viewBox="0 0 25 25" fill="none" xmlns="http://www.w3.org/2000/svg">
<circle cx="12.3106" cy="12.4439" r="11.1047" transform="rotate(-0.0602574 12.3106 12.4439)" fill="#F9D052" stroke="#1B1D1C" stroke-width="2"/>
<path d="M16.6461 8.54231H15.2599L14.5868 7.53109C14.5273 7.44193 14.4467 7.36885 14.3522 7.31836C14.2576 7.26788 14.1521 7.24154 14.0449 7.2417H10.5766C10.4694 7.24154 10.3639 7.26788 10.2693 7.31836C10.1748 7.36885 10.0942 7.44193 10.0347 7.53109L9.36108 8.54231H7.97539C7.57295 8.54231 7.187 8.70218 6.90244 8.98674C6.61787 9.2713 6.45801 9.65725 6.45801 10.0597V16.1292C6.45801 16.5316 6.61787 16.9176 6.90244 17.2022C7.187 17.4867 7.57295 17.6466 7.97539 17.6466H16.6461C16.8454 17.6466 17.0427 17.6073 17.2268 17.5311C17.4109 17.4548 17.5782 17.3431 17.7191 17.2022C17.86 17.0612 17.9717 16.894 18.048 16.7099C18.1243 16.5258 18.1635 16.3285 18.1635 16.1292V10.0597C18.1635 9.86042 18.1243 9.66311 18.048 9.47901C17.9717 9.29492 17.86 9.12764 17.7191 8.98674C17.5782 8.84584 17.4109 8.73407 17.2268 8.65781C17.0427 8.58156 16.8454 8.54231 16.6461 8.54231ZM16.8629 16.1292C16.8629 16.1867 16.8401 16.2418 16.7994 16.2825C16.7587 16.3231 16.7036 16.346 16.6461 16.346H7.97539C7.9179 16.346 7.86276 16.3231 7.82211 16.2825C7.78146 16.2418 7.75862 16.1867 7.75862 16.1292V10.0597C7.75862 10.0022 7.78146 9.94706 7.82211 9.90641C7.86276 9.86576 7.9179 9.84292 7.97539 9.84292H9.70953C9.81672 9.84308 9.92227 9.81674 10.0168 9.76626C10.1114 9.71577 10.192 9.64269 10.2515 9.55353L10.9245 8.54231H13.6964L14.3701 9.55353C14.4295 9.64269 14.5101 9.71577 14.6047 9.76626C14.6992 9.81674 14.8048 9.84308 14.912 9.84292H16.6461C16.7036 9.84292 16.7587 9.86576 16.7994 9.90641C16.8401 9.94706 16.8629 10.0022 16.8629 10.0597V16.1292ZM12.3108 10.2765C11.7963 10.2765 11.2934 10.429 10.8656 10.7148C10.4378 11.0007 10.1044 11.4069 9.90754 11.8822C9.71066 12.3575 9.65915 12.8806 9.75952 13.3851C9.85988 13.8897 10.1076 14.3532 10.4714 14.717C10.8352 15.0808 11.2987 15.3285 11.8033 15.4289C12.3079 15.5293 12.8309 15.4778 13.3062 15.2809C13.7815 15.084 14.1878 14.7506 14.4736 14.3228C14.7594 13.8951 14.912 13.3921 14.912 12.8777C14.9113 12.188 14.637 11.5268 14.1493 11.0391C13.6616 10.5515 13.0004 10.2772 12.3108 10.2765ZM12.3108 14.1783C12.0535 14.1783 11.8021 14.102 11.5882 13.9591C11.3743 13.8162 11.2076 13.6131 11.1091 13.3754C11.0107 13.1377 10.9849 12.8762 11.0351 12.6239C11.0853 12.3716 11.2092 12.1399 11.3911 11.958C11.573 11.7761 11.8047 11.6522 12.057 11.6021C12.3093 11.5519 12.5708 11.5776 12.8085 11.6761C13.0461 11.7745 13.2493 11.9412 13.3922 12.1551C13.5351 12.369 13.6114 12.6204 13.6114 12.8777C13.6114 13.2226 13.4743 13.5534 13.2304 13.7973C12.9865 14.0413 12.6557 14.1783 12.3108 14.1783Z" fill="#1B1D1C"/>
</svg>
