<svg width="22" height="22" viewBox="0 0 22 22" fill="none" xmlns="http://www.w3.org/2000/svg">
<path fill-rule="evenodd" clip-rule="evenodd" d="M3.00293 4.68115C2.97266 4.88721 2.95898 5.10205 2.95898 5.32666V5.50098V5.98486V6.5127L2.95996 7.54761V8.7627L2.96094 10.9272L2.96191 13.0352V13.1665V13.2979V15.708L2.96289 16.5581V17.6038L2.96387 18.1372V18.6318V18.8118V18.9812V19.1353C2.96387 19.4238 3.00781 19.6055 3.20703 19.8181C3.44238 19.9768 3.68262 19.9956 3.95898 19.9978L4.19434 19.9968L4.63672 19.9971L5.12012 19.9966L6.06738 19.9963L7.17969 19.9951L9.16113 19.9937L11.0908 19.9917H11.2109H11.3311L13.5371 19.9907L14.3154 19.9902L15.2725 19.9893L15.7607 19.9885L16.2139 19.9883L16.3789 19.9875L16.5332 19.988L16.6748 19.9873C16.8877 19.9868 17.0303 19.9485 17.207 19.8281C17.3965 19.6531 17.4736 19.5234 17.4844 19.2644C17.4805 19.1455 17.4707 19.0481 17.4297 18.9573C17.4072 18.9058 17.375 18.8562 17.3291 18.8059C17.1074 18.6001 16.873 18.5681 16.5791 18.5662L16.4346 18.5676H15.9434L15.4912 18.5686L14.7061 18.5696L13.5625 18.5718L11.708 18.5745L9.90039 18.5779H9.78809L9.22656 18.5786L4.55762 18.5864L4.47852 18.5867C4.53223 18.1978 4.63477 17.9189 4.91504 17.6333C5.16016 17.438 5.43457 17.3389 5.72559 17.2932C5.87305 17.2703 6.02539 17.2607 6.17969 17.2595L6.32422 17.2603L6.82031 17.259L7.27734 17.2585L8.07031 17.2571L9.22559 17.2554L11.0996 17.252L12.9238 17.2495H13.0381L14.2705 17.2471L14.3799 17.2468L14.8135 17.2461L16.0791 17.2439L16.6318 17.2432L15.1211 15.8506L11.6084 15.8582L9.01562 15.863L8.03223 15.8652L7.18262 15.8669L6.74414 15.8682C5.98242 15.8674 5.28027 15.8679 4.56738 16.1638L4.47852 16.2031L4.46973 11.9382V11.4236V11.3201L4.46582 9.65771L4.46289 7.9458C4.46289 7.59424 4.46289 7.24243 4.46094 6.89087L4.45996 6.16113V6.02441L3.00293 4.68115ZM7.22168 4.64526L7.21777 3.65015C6.68164 3.61133 6.3584 3.58813 6.09766 3.60913L4.83301 2.44312C5.38965 2.25879 5.99219 2.23657 6.63379 2.23853L7.10742 2.23755L8.03223 2.23706H8.7832L8.8916 2.23682L9.10938 2.23657L11.1475 2.23706L13.0117 2.23584L14.9287 2.23462L15.1455 2.23486H15.2529L16.0039 2.23389L16.918 2.23413L17.3848 2.23389L17.8115 2.23462L18.0391 2.2334C18.127 2.23438 18.2061 2.23828 18.2803 2.24878C18.4443 2.27197 18.584 2.32812 18.7334 2.4585C18.9004 2.63843 18.9365 2.76611 18.9365 3.00806L18.9375 3.15552V3.31836V3.49072L18.9385 3.96533V4.47681L18.9395 5.59595L18.9404 6.29443L18.9414 8.22754V8.35254V8.47803V8.72925V8.85522L18.9434 10.8767L18.9443 12.9507L18.9453 14.1157L18.9463 15.1077V15.4521L17.4629 14.085V3.65015H14.7227V11.5591L13.333 10.2842V3.65015H8.56836V5.88623L7.22168 4.64526ZM7.23926 8.58594L7.25781 12.9854L8.06738 12.4231L8.16113 12.3574L8.82422 11.8914C9.12305 11.6794 9.42285 11.4683 9.72363 11.2581L9.95898 11.093L8.95605 10.1687C8.78516 10.2808 8.77246 10.2881 8.56836 10.4033V9.81104L7.23926 8.58594Z" fill="white"/>
<rect width="1.75473" height="25.8287" transform="matrix(0.696409 -0.717645 0.735299 0.677743 0.526367 2.4729)" fill="white"/>
</svg>
