<svg width="22" height="22" viewBox="0 0 22 22" fill="none" xmlns="http://www.w3.org/2000/svg">
<circle cx="11" cy="10.9941" r="10.8701" fill="#F9D052"/>
<path d="M7.87407 6.75868L10.9998 9.88442L14.1094 6.77487C14.178 6.70177 14.2608 6.64328 14.3526 6.60293C14.4445 6.56258 14.5435 6.54118 14.6438 6.54004C14.8586 6.54004 15.0646 6.62535 15.2164 6.77722C15.3683 6.92908 15.4536 7.13505 15.4536 7.34982C15.4555 7.4491 15.4371 7.54772 15.3995 7.63962C15.3619 7.73153 15.3059 7.81478 15.235 7.88427L12.0849 10.9938L15.235 14.1439C15.3684 14.2744 15.4467 14.4512 15.4536 14.6378C15.4536 14.8526 15.3683 15.0586 15.2164 15.2104C15.0646 15.3623 14.8586 15.4476 14.6438 15.4476C14.5406 15.4519 14.4376 15.4347 14.3415 15.397C14.2453 15.3594 14.158 15.3021 14.0851 15.229L10.9998 12.1032L7.88216 15.2209C7.81374 15.2915 7.732 15.348 7.64166 15.3869C7.55132 15.4258 7.45417 15.4464 7.35581 15.4476C7.14104 15.4476 6.93507 15.3623 6.78321 15.2104C6.63135 15.0586 6.54603 14.8526 6.54603 14.6378C6.54414 14.5385 6.56256 14.4399 6.60016 14.348C6.63776 14.2561 6.69374 14.1729 6.76467 14.1034L9.91471 10.9938L6.76467 7.84378C6.63121 7.71321 6.55295 7.5364 6.54603 7.34982C6.54603 7.13505 6.63135 6.92908 6.78321 6.77722C6.93507 6.62535 7.14104 6.54004 7.35581 6.54004C7.55016 6.54247 7.7364 6.62102 7.87407 6.75868Z" fill="#272727"/>
</svg>
