<svg width="16" height="21" viewBox="0 0 16 21" fill="none" xmlns="http://www.w3.org/2000/svg">
<path d="M3.12537 0.647662C3.16468 0.647441 3.20399 0.647219 3.24449 0.646991C3.37575 0.646346 3.507 0.646231 3.63826 0.646119C3.73256 0.645774 3.82685 0.645399 3.92115 0.644997C4.17697 0.64402 4.43278 0.643535 4.6886 0.643206C4.84845 0.643 5.00831 0.642683 5.16816 0.642348C5.61117 0.641439 6.05418 0.640671 6.49718 0.640418C6.53965 0.640393 6.53965 0.640393 6.58297 0.640368C6.61135 0.640352 6.63972 0.640336 6.66896 0.640319C6.72645 0.640286 6.78395 0.640253 6.84144 0.640219C6.86996 0.640203 6.89848 0.640186 6.92786 0.640169C7.39017 0.639874 7.85247 0.638572 8.31477 0.636836C8.78995 0.635066 9.26511 0.634138 9.74029 0.634051C10.0069 0.633982 10.2734 0.633555 10.54 0.632199C10.7907 0.630929 11.0414 0.630809 11.292 0.631464C11.384 0.631521 11.4759 0.631197 11.5678 0.63046C11.6935 0.629512 11.8191 0.629949 11.9447 0.630727C11.981 0.630126 12.0172 0.629525 12.0546 0.628906C12.3176 0.632708 12.4847 0.710684 12.684 0.881902C12.855 1.08207 12.8602 1.2769 12.8522 1.5363C12.8236 1.72951 12.7519 1.86739 12.6094 2.00072C12.3922 2.1522 12.2305 2.1713 11.9692 2.16875C11.9316 2.16898 11.894 2.16921 11.8552 2.16944C11.7294 2.17002 11.6036 2.16955 11.4778 2.16908C11.3875 2.16928 11.2972 2.16955 11.2069 2.16988C11.0126 2.17045 10.8182 2.17058 10.6239 2.1703C10.3426 2.16991 10.0613 2.17041 9.77999 2.17114C9.32312 2.17231 8.86626 2.17287 8.40939 2.17299C8.38207 2.173 8.35475 2.17301 8.3266 2.17301C8.29924 2.17302 8.27188 2.17303 8.2437 2.17304C7.85597 2.17315 7.46823 2.1734 7.0805 2.17383C7.03958 2.17387 7.03958 2.17387 6.99784 2.17392C6.54269 2.17443 6.08754 2.17525 5.63239 2.17621C5.35186 2.17679 5.07134 2.17706 4.79081 2.17693C4.57581 2.17684 4.3608 2.17712 4.1458 2.17752C4.0577 2.17762 3.9696 2.17759 3.8815 2.17743C3.76118 2.17721 3.64086 2.17746 3.52053 2.17781C3.48573 2.17764 3.45094 2.17747 3.41509 2.17729C3.11657 2.179 2.85137 2.21184 2.61458 2.41096C2.46235 2.60324 2.43965 2.76614 2.4488 3.00985C2.47852 3.2062 2.5594 3.34413 2.71452 3.46787C2.96365 3.62344 3.23304 3.60979 3.51572 3.60927C3.55379 3.60934 3.59187 3.60942 3.63109 3.6095C3.75863 3.60973 3.88616 3.60969 4.0137 3.60966C4.10517 3.60977 4.19664 3.6099 4.28811 3.61005C4.48511 3.61035 4.68212 3.61054 4.87912 3.61066C5.19087 3.61086 5.50261 3.6115 5.81435 3.6122C5.92114 3.61244 6.02792 3.61267 6.1347 3.61291C6.17473 3.613 6.17473 3.613 6.21556 3.61309C6.51915 3.61376 6.82273 3.61436 7.12632 3.61492C7.15406 3.61497 7.1818 3.61502 7.21038 3.61508C7.65945 3.61589 8.10851 3.6163 8.55758 3.61658C9.01926 3.61688 9.48094 3.61775 9.94263 3.61911C10.227 3.61993 10.5114 3.62029 10.7958 3.62006C11.0141 3.61993 11.2324 3.62058 11.4508 3.6215C11.54 3.62176 11.6292 3.62177 11.7184 3.6215C12.4854 3.61941 13.1008 3.71179 13.6804 4.26299C14.1606 4.75553 14.3365 5.29915 14.3349 5.97457C14.335 6.02587 14.3352 6.07716 14.3354 6.12845C14.3359 6.26886 14.3358 6.40927 14.3358 6.54968C14.3357 6.70133 14.3362 6.85298 14.3365 7.00462C14.3371 7.30154 14.3373 7.59846 14.3374 7.89538C14.3374 8.13683 14.3376 8.37828 14.3378 8.61974C14.3385 9.30481 14.3388 9.98989 14.3387 10.675C14.3387 10.7119 14.3387 10.7488 14.3387 10.7868C14.3387 10.8238 14.3387 10.8607 14.3387 10.8988C14.3387 11.4975 14.3394 12.0962 14.3405 12.6949C14.3415 13.3102 14.3421 13.9254 14.342 14.5407C14.342 14.8859 14.3422 15.2311 14.343 15.5763C14.3437 15.8703 14.3438 16.1642 14.3433 16.4582C14.3431 16.608 14.3431 16.7579 14.3437 16.9077C14.3443 17.0452 14.3442 17.1826 14.3435 17.3201C14.3434 17.3927 14.3439 17.4654 14.3445 17.5381C14.3398 18.1451 14.1212 18.6691 13.7036 19.1082C13.25 19.5505 12.7237 19.7647 12.0939 19.7627C12.0541 19.7628 12.0143 19.763 11.9733 19.7632C11.8403 19.7637 11.7074 19.7636 11.5744 19.7635C11.4789 19.7638 11.3833 19.764 11.2878 19.7643C11.0555 19.7649 10.8232 19.7651 10.5909 19.7652C10.4019 19.7652 10.213 19.7654 10.024 19.7656C9.48751 19.7662 8.95103 19.7666 8.41454 19.7665C8.38565 19.7665 8.35676 19.7665 8.32699 19.7665C8.29807 19.7665 8.26914 19.7665 8.23934 19.7665C7.77086 19.7665 7.30239 19.7672 6.83392 19.7682C6.35217 19.7693 5.87043 19.7698 5.38868 19.7698C5.1185 19.7697 4.84834 19.7699 4.57816 19.7708C4.32394 19.7715 4.06972 19.7715 3.8155 19.7709C3.72242 19.7709 3.62935 19.771 3.53628 19.7715C2.75669 19.775 2.13355 19.6924 1.54354 19.1314C1.14844 18.7261 0.890107 18.2226 0.889459 17.6488C0.889328 17.6225 0.889198 17.5963 0.889063 17.5692C0.888717 17.4816 0.888899 17.3941 0.88908 17.3065C0.888941 17.2429 0.888769 17.1793 0.888568 17.1157C0.888113 16.9413 0.888122 16.7669 0.88821 16.5924C0.888225 16.4042 0.887813 16.2159 0.88746 16.0277C0.88684 15.659 0.886635 15.2903 0.886594 14.9215C0.886558 14.6218 0.886405 14.322 0.886168 14.0222C0.885512 13.1721 0.885167 12.3219 0.885223 11.4717C0.885226 11.4259 0.885229 11.3801 0.885232 11.3328C0.885235 11.287 0.885239 11.2411 0.885242 11.1938C0.885272 10.4504 0.884558 9.70702 0.883507 8.96362C0.882435 8.20002 0.88192 7.43643 0.881984 6.67283C0.882009 6.24424 0.881805 5.81565 0.881002 5.38707C0.880322 5.02213 0.880161 4.6572 0.880667 4.29226C0.88091 4.10617 0.880915 3.92008 0.880267 3.73398C0.879679 3.56339 0.879789 3.39282 0.880438 3.22223C0.880552 3.16075 0.880418 3.09926 0.880001 3.03777C0.875739 2.36471 1.0489 1.79842 1.52038 1.30263C1.97224 0.862082 2.49777 0.646546 3.12537 0.647662ZM2.39082 5.02154C2.38911 6.60806 2.3878 8.19459 2.38701 9.78111C2.38691 9.96839 2.38682 10.1557 2.38672 10.343C2.3867 10.3802 2.38668 10.4175 2.38666 10.4559C2.38634 11.0597 2.38575 11.6635 2.38506 12.2673C2.38436 12.8868 2.38395 13.5063 2.3838 14.1258C2.3837 14.5081 2.38337 14.8904 2.38277 15.2727C2.38237 15.5348 2.38225 15.7969 2.38235 16.0591C2.3824 16.2103 2.38232 16.3616 2.38193 16.5128C2.38156 16.6513 2.38154 16.7899 2.3818 16.9284C2.38185 17.0021 2.38152 17.0758 2.38119 17.1496C2.3823 17.4804 2.39164 17.7732 2.61458 18.0372C2.89268 18.257 3.15827 18.2665 3.5014 18.2659C3.53793 18.266 3.57446 18.2661 3.6121 18.2662C3.7344 18.2664 3.8567 18.2664 3.979 18.2664C4.06673 18.2665 4.15446 18.2666 4.24219 18.2667C4.48044 18.2671 4.71869 18.2672 4.95694 18.2672C5.13076 18.2672 5.30459 18.2673 5.47841 18.2674C5.9459 18.2677 6.4134 18.2679 6.88089 18.2679C6.90742 18.2679 6.93395 18.2678 6.96129 18.2678C6.98785 18.2678 7.01441 18.2678 7.04178 18.2678C7.47228 18.2678 7.90278 18.2682 8.33329 18.2687C8.77563 18.2692 9.21796 18.2695 9.6603 18.2695C9.90852 18.2695 10.1567 18.2696 10.405 18.27C10.6384 18.2703 10.8718 18.2703 11.1053 18.2701C11.1909 18.27 11.2765 18.2701 11.3622 18.2703C11.4791 18.2706 11.5961 18.2704 11.7131 18.2702C11.7638 18.2704 11.7638 18.2704 11.8155 18.2707C12.1112 18.2691 12.3755 18.2346 12.6094 18.0372C12.7913 17.8071 12.8377 17.5987 12.838 17.3066C12.8381 17.2658 12.8382 17.225 12.8383 17.183C12.8383 17.1386 12.8382 17.0942 12.8381 17.0484C12.8382 17.0009 12.8383 16.9534 12.8384 16.9045C12.8386 16.7729 12.8386 16.6413 12.8386 16.5097C12.8386 16.3677 12.8388 16.2257 12.839 16.0837C12.8393 15.8056 12.8394 15.5275 12.8394 15.2493C12.8394 15.0233 12.8395 14.7972 12.8396 14.5711C12.8399 13.9301 12.8401 13.289 12.8401 12.6479C12.8401 12.6134 12.8401 12.5788 12.8401 12.5432C12.8401 12.5086 12.8401 12.474 12.8401 12.4384C12.84 11.8777 12.8404 11.3169 12.8409 10.7562C12.8415 10.1804 12.8417 9.60453 12.8417 9.02868C12.8417 8.70542 12.8418 8.38216 12.8422 8.05891C12.8425 7.7837 12.8426 7.50851 12.8423 7.2333C12.8422 7.09293 12.8422 6.95256 12.8425 6.81218C12.8429 6.65993 12.8427 6.50767 12.8424 6.35542C12.8427 6.28904 12.8427 6.28904 12.843 6.22132C12.8416 5.89906 12.8262 5.61394 12.6094 5.35719C12.3268 5.13381 12.0556 5.12789 11.7073 5.12803C11.65 5.12783 11.65 5.12783 11.5916 5.12763C11.4637 5.12723 11.3358 5.12709 11.2079 5.12695C11.1162 5.12672 11.0245 5.12646 10.9328 5.1262C10.7353 5.12565 10.5378 5.12521 10.3403 5.12486C10.0544 5.12434 9.76848 5.12355 9.48258 5.12268C9.0182 5.12126 8.55383 5.11996 8.08946 5.11878C8.06168 5.11871 8.0339 5.11863 8.00528 5.11856C7.61117 5.11756 7.21705 5.11667 6.82294 5.11582C6.7952 5.11576 6.76745 5.11571 6.73886 5.11564C6.69729 5.11555 6.69729 5.11555 6.65489 5.11546C6.19236 5.11446 5.72983 5.11318 5.26731 5.11167C4.98224 5.11074 4.69716 5.11006 4.41209 5.10968C4.1935 5.10937 3.97492 5.10868 3.75634 5.10785C3.66681 5.10758 3.57729 5.10742 3.48776 5.10741C3.3654 5.10737 3.24305 5.10687 3.12069 5.10627C3.0854 5.10636 3.05011 5.10646 3.01375 5.10656C2.79556 5.10488 2.60234 5.0757 2.39082 5.02154Z" fill="white"/>
<path d="M4.42171 13.4364C4.44069 13.4362 4.45968 13.436 4.47925 13.4358C4.54241 13.4352 4.60554 13.4355 4.66871 13.4357C4.71418 13.4354 4.75965 13.4352 4.80513 13.4348C4.92833 13.4341 5.05152 13.4341 5.17472 13.4342C5.27771 13.4343 5.3807 13.434 5.4837 13.4338C5.72675 13.4332 5.96981 13.4332 6.21286 13.4335C6.46328 13.4338 6.71369 13.4331 6.9641 13.432C7.1794 13.4311 7.3947 13.4307 7.61 13.4309C7.73846 13.431 7.86691 13.4309 7.99536 13.4301C8.11621 13.4295 8.23704 13.4296 8.35789 13.4303C8.40211 13.4304 8.44634 13.4302 8.49056 13.4298C8.73399 13.4275 8.93225 13.4309 9.11736 13.6108C9.23995 13.7543 9.24374 13.894 9.238 14.08C9.21747 14.2185 9.16608 14.3174 9.06389 14.4129C8.9292 14.5017 8.84395 14.5333 8.6792 14.5338C8.66021 14.534 8.64122 14.5343 8.62166 14.5345C8.5585 14.535 8.49536 14.5348 8.4322 14.5346C8.38672 14.5348 8.34125 14.5351 8.29578 14.5354C8.17258 14.5361 8.04938 14.5362 7.92618 14.536C7.82319 14.536 7.7202 14.5362 7.61721 14.5365C7.37415 14.5371 7.1311 14.5371 6.88804 14.5368C6.63762 14.5365 6.38722 14.5371 6.1368 14.5383C5.9215 14.5392 5.70621 14.5395 5.4909 14.5393C5.36244 14.5393 5.234 14.5394 5.10554 14.5401C4.98469 14.5408 4.86387 14.5407 4.74302 14.54C4.6988 14.5399 4.65457 14.54 4.61035 14.5405C4.36692 14.5427 4.16866 14.5393 3.98354 14.3595C3.86096 14.216 3.85717 14.0763 3.8629 13.8903C3.88343 13.7518 3.93482 13.6529 4.03702 13.5573C4.17171 13.4686 4.25695 13.4369 4.42171 13.4364Z" fill="white"/>
<path d="M4.40874 11.1614C4.42729 11.1612 4.44584 11.161 4.46495 11.1607C4.52665 11.1602 4.58833 11.1604 4.65003 11.1606C4.69445 11.1604 4.73887 11.1601 4.7833 11.1598C4.90365 11.1591 5.02399 11.1591 5.14434 11.1592C5.24495 11.1593 5.34556 11.159 5.44617 11.1588C5.6836 11.1582 5.92103 11.1582 6.15847 11.1585C6.40309 11.1588 6.6477 11.1582 6.89233 11.157C7.10265 11.1561 7.31297 11.1558 7.52329 11.156C7.64878 11.1561 7.77425 11.1559 7.89974 11.1552C8.01779 11.1545 8.13582 11.1547 8.25387 11.1553C8.29707 11.1555 8.34027 11.1553 8.38347 11.1549C8.62127 11.1527 8.81495 11.156 8.99578 11.3317C9.11553 11.4719 9.11923 11.6083 9.11363 11.79C9.09357 11.9253 9.04337 12.0219 8.94354 12.1153C8.81196 12.202 8.72869 12.2329 8.56775 12.2334C8.5492 12.2336 8.53065 12.2338 8.51154 12.234C8.44984 12.2345 8.38817 12.2343 8.32647 12.2341C8.28204 12.2344 8.23762 12.2346 8.1932 12.2349C8.07285 12.2356 7.95251 12.2357 7.83215 12.2355C7.73154 12.2355 7.63094 12.2357 7.53033 12.236C7.29289 12.2366 7.05546 12.2366 6.81803 12.2363C6.5734 12.236 6.32879 12.2366 6.08417 12.2377C5.87385 12.2386 5.66353 12.2389 5.45321 12.2388C5.32772 12.2387 5.20224 12.2388 5.07676 12.2395C4.95871 12.2402 4.84068 12.2401 4.72262 12.2394C4.67942 12.2393 4.63622 12.2394 4.59302 12.2399C4.35522 12.2421 4.16155 12.2388 3.98071 12.0631C3.86096 11.9229 3.85726 11.7864 3.86287 11.6047C3.88292 11.4694 3.93312 11.3728 4.03295 11.2795C4.16453 11.1928 4.2478 11.1619 4.40874 11.1614Z" fill="white"/>
<path d="M7.97617 6.51725C8.15525 6.62784 8.28984 6.75712 8.35785 6.96085C8.37553 7.13458 8.37193 7.30624 8.36718 7.48063C8.36651 7.52748 8.36583 7.57433 8.36514 7.6226C8.36339 7.73769 8.36094 7.85272 8.35785 7.96779C8.3866 7.96661 8.41535 7.96544 8.44496 7.96423C8.57675 7.95955 8.70851 7.95666 8.84035 7.9538C8.88556 7.95193 8.93077 7.95005 8.97736 7.94812C9.28046 7.94319 9.47448 7.98292 9.70044 8.19155C9.87142 8.39172 9.8767 8.58654 9.8687 8.84594C9.84007 9.03915 9.76839 9.17704 9.62585 9.31037C9.39293 9.47949 9.19314 9.48244 8.91056 9.48198C8.86703 9.4823 8.82349 9.48262 8.77864 9.48295C8.6868 9.48338 8.59496 9.48342 8.50312 9.48309C8.36321 9.48286 8.22343 9.48461 8.08354 9.4865C7.99404 9.48667 7.90455 9.48672 7.81505 9.48664C7.7528 9.48767 7.7528 9.48767 7.68929 9.48873C7.40831 9.48542 7.22213 9.43112 7.01527 9.23578C6.82639 9.03259 6.84323 8.78404 6.84366 8.5205C6.84334 8.47696 6.84302 8.43343 6.84269 8.38857C6.84226 8.29673 6.84222 8.20489 6.84255 8.11305C6.84278 7.97314 6.84103 7.83336 6.83914 7.69347C6.83897 7.60397 6.83892 7.51448 6.839 7.42498C6.83831 7.38348 6.83762 7.34198 6.83691 7.29922C6.84024 7.01712 6.90144 6.83765 7.08986 6.6252C7.33126 6.419 7.68343 6.40023 7.97617 6.51725Z" fill="white"/>
<circle cx="11.074" cy="15.3096" r="4.89923" fill="white"/>
<circle cx="11.0741" cy="15.3097" r="4.0966" fill="#1B1D1C"/>
<path d="M12.6433 17.2272L11.0758 15.6572L9.50819 17.2272L9.1582 16.8772L10.7282 15.3096L9.1582 13.7421L9.50819 13.3921L11.0758 14.9621L12.6433 13.3946L12.9908 13.7421L11.4233 15.3096L12.9908 16.8772L12.6433 17.2272Z" fill="#EEEEEE"/>
</svg>
