<svg width="20" height="18" viewBox="0 0 20 18" fill="none" xmlns="http://www.w3.org/2000/svg">
<path d="M2.93906 0.000399431C2.96396 0.000351364 2.98887 0.000303296 3.01453 0.000253772C3.09786 0.000133217 3.1812 0.000247806 3.26453 0.000361647C3.32493 0.000323535 3.38533 0.000271007 3.44573 0.00020531C3.61162 6.71704e-05 3.77751 0.000135531 3.9434 0.000237926C4.12234 0.000312683 4.30127 0.000197289 4.48021 0.000106304C4.81046 -3.23489e-05 5.1407 -2.02011e-05 5.47095 7.03046e-05C5.77604 0.000153505 6.08113 0.000175212 6.38622 0.000135699C6.40646 0.000133172 6.4267 0.000130646 6.44755 0.000128044C6.52971 0.000117747 6.61186 0.000107217 6.69402 9.63027e-05C7.46469 -4.85758e-06 8.23535 8.68516e-05 9.00602 0.000264865C9.69067 0.000421808 10.3753 0.000407765 11.06 0.000249619C11.8292 7.2525e-05 12.5985 2.31659e-06 13.3678 0.00010451C13.4498 0.000115117 13.5318 0.000125463 13.6138 0.000135699C13.6441 0.000139621 13.6441 0.000139621 13.675 0.000143623C13.9799 0.000181238 14.2848 0.000137254 14.5897 5.36961e-05C14.9363 -4.0841e-05 15.283 -1.40859e-05 15.6297 0.000162195C15.8066 0.00024919 15.9836 0.000283006 16.1605 0.000173798C16.3224 7.53682e-05 16.4843 0.000129224 16.6462 0.000305342C16.7049 0.000342331 16.7635 0.000323385 16.8221 0.000243307C16.9017 0.000142877 16.9813 0.000245771 17.0609 0.000399431C17.0837 0.000322005 17.1066 0.00024458 17.1301 0.000164808C17.2716 0.000711616 17.4075 0.0146359 17.5477 0.0376326C17.5477 0.0594598 17.5477 0.081287 17.5477 0.103776C17.6427 0.114689 17.7378 0.125603 17.8358 0.136847C17.8358 0.158674 17.8358 0.180501 17.8358 0.20299C17.9498 0.21936 17.9498 0.21936 18.0662 0.236061C18.0662 0.257889 18.0662 0.279716 18.0662 0.302204C18.1233 0.313118 18.1803 0.324032 18.2391 0.335276C18.2391 0.357103 18.2391 0.37893 18.2391 0.401419C18.2664 0.404147 18.2937 0.406876 18.3219 0.409687C18.3516 0.417872 18.3813 0.426057 18.4119 0.43449C18.4321 0.478028 18.4513 0.522137 18.4695 0.566776C18.5431 0.593621 18.5431 0.593621 18.6136 0.599848C18.6136 0.621675 18.6136 0.643502 18.6136 0.66599C18.6516 0.676904 18.6896 0.687818 18.7288 0.699062C18.7288 0.720889 18.7288 0.742716 18.7288 0.765205C18.8001 0.781575 18.8001 0.781575 18.8728 0.798276C18.8728 0.820104 18.8728 0.841931 18.8728 0.864419C18.9014 0.875333 18.9299 0.886246 18.9593 0.897491C18.9593 0.919318 18.9593 0.941145 18.9593 0.963634C18.9878 0.974547 19.0163 0.985461 19.0457 0.996705C19.0457 1.01853 19.0457 1.04036 19.0457 1.06285C19.0647 1.06285 19.0837 1.06285 19.1033 1.06285C19.1423 1.11742 19.1807 1.17256 19.2185 1.22821C19.2375 1.23912 19.2566 1.25003 19.2761 1.26128C19.2815 1.30118 19.2815 1.30118 19.287 1.34189C19.2929 1.36985 19.2988 1.39782 19.305 1.42663C19.3429 1.44976 19.3813 1.47185 19.4202 1.49278C19.4418 1.56305 19.4418 1.56305 19.449 1.62506C19.468 1.62506 19.487 1.62506 19.5066 1.62506C19.5161 1.67963 19.5256 1.7342 19.5354 1.79042C19.5544 1.79042 19.5734 1.79042 19.593 1.79042C19.6025 1.8559 19.612 1.92138 19.6218 1.98885C19.6409 1.98885 19.6599 1.98885 19.6795 1.98885C19.689 2.05433 19.6985 2.11981 19.7083 2.18728C19.7273 2.18728 19.7463 2.18728 19.7659 2.18728C19.7754 2.27459 19.7849 2.3619 19.7947 2.45185C19.8137 2.45185 19.8327 2.45185 19.8523 2.45185C19.9055 2.5836 19.9203 2.69803 19.9279 2.84251C19.9301 2.88092 19.9322 2.91933 19.9345 2.9589C19.9359 2.98802 19.9373 3.01714 19.9387 3.04714C19.9577 3.04714 19.9768 3.04714 19.9963 3.04714C19.997 4.55908 19.9975 6.07102 19.9978 7.58297C19.9979 7.76127 19.9979 7.93957 19.9979 8.11787C19.9979 8.15336 19.9979 8.18886 19.9979 8.22544C19.9981 8.80101 19.9983 9.37659 19.9986 9.95216C19.9988 10.5423 19.999 11.1324 19.9991 11.7225C19.9991 12.087 19.9992 12.4514 19.9995 12.8159C19.9996 13.0655 19.9997 13.315 19.9996 13.5646C19.9996 13.7088 19.9996 13.853 19.9998 13.9972C19.9999 14.129 19.9999 14.2608 19.9998 14.3926C19.9998 14.4405 19.9999 14.4884 19.9999 14.5363C20.0001 14.601 20 14.6656 19.9999 14.7303C19.9999 14.7844 19.9999 14.7844 19.9999 14.8396C19.9963 14.9198 19.9963 14.9198 19.9675 14.9529C19.9519 15.0595 19.9397 15.1666 19.9271 15.2738C19.9114 15.3736 19.8884 15.4559 19.8523 15.5482C19.8333 15.5482 19.8143 15.5482 19.7947 15.5482C19.7852 15.6355 19.7757 15.7228 19.7659 15.8127C19.7469 15.8127 19.7279 15.8127 19.7083 15.8127C19.6988 15.8782 19.6893 15.9437 19.6795 16.0112C19.6604 16.0112 19.6414 16.0112 19.6218 16.0112C19.6123 16.0766 19.6028 16.1421 19.593 16.2096C19.574 16.2096 19.555 16.2096 19.5354 16.2096C19.5259 16.2641 19.5164 16.3187 19.5066 16.3749C19.4876 16.3749 19.4686 16.3749 19.449 16.3749C19.4413 16.4015 19.4335 16.4281 19.4256 16.4555C19.4143 16.4835 19.403 16.5115 19.3914 16.5403C19.3629 16.5512 19.3343 16.5621 19.305 16.5734C19.3032 16.5979 19.3014 16.6225 19.2996 16.6478C19.2691 16.7662 19.2176 16.7999 19.1321 16.871C19.1226 16.8928 19.1131 16.9147 19.1033 16.9372C19.0843 16.9372 19.0653 16.9372 19.0457 16.9372C19.0362 16.9699 19.0267 17.0026 19.0169 17.0364C18.9979 17.0364 18.9788 17.0364 18.9593 17.0364C18.9498 17.0691 18.9402 17.1018 18.9305 17.1356C18.9114 17.1356 18.8924 17.1356 18.8728 17.1356C18.8728 17.1574 18.8728 17.1792 18.8728 17.2017C18.8253 17.2126 18.7778 17.2236 18.7288 17.2348C18.7193 17.2675 18.7098 17.3003 18.7 17.334C18.681 17.334 18.662 17.334 18.6424 17.334C18.6424 17.3558 18.6424 17.3777 18.6424 17.4002C18.6014 17.4042 18.6014 17.4042 18.5596 17.4084C18.5298 17.4166 18.5001 17.4248 18.4695 17.4332C18.46 17.4551 18.4505 17.4769 18.4407 17.4994C18.4312 17.5212 18.4217 17.543 18.4119 17.5655C18.3219 17.5903 18.3219 17.5903 18.2391 17.5986C18.2391 17.6204 18.2391 17.6422 18.2391 17.6647C18.182 17.6756 18.125 17.6866 18.0662 17.6978C18.0662 17.7196 18.0662 17.7415 18.0662 17.7639C17.9902 17.7749 17.9141 17.7858 17.8358 17.797C17.8358 17.8188 17.8358 17.8407 17.8358 17.8632C17.7407 17.8741 17.6456 17.885 17.5477 17.8962C17.5477 17.9181 17.5477 17.9399 17.5477 17.9624C17.3841 17.9892 17.2261 18.0002 17.0609 17.9996C17.036 17.9996 17.0111 17.9997 16.9855 17.9997C16.9021 17.9999 16.8188 17.9998 16.7355 17.9996C16.6751 17.9997 16.6147 17.9997 16.5543 17.9998C16.3884 17.9999 16.2225 17.9999 16.0566 17.9998C15.8777 17.9997 15.6987 17.9998 15.5198 17.9999C15.1895 18 14.8593 18 14.529 17.9999C14.224 17.9998 13.9189 17.9998 13.6138 17.9999C13.5935 17.9999 13.5733 17.9999 13.5524 17.9999C13.4703 17.9999 13.3881 17.9999 13.306 17.9999C12.5353 18 11.7646 17.9999 10.994 17.9997C10.3093 17.9996 9.62467 17.9996 8.94001 17.9998C8.17076 17.9999 7.4015 18 6.63224 17.9999C6.55023 17.9999 6.46823 17.9999 6.38622 17.9999C6.36603 17.9999 6.34583 17.9999 6.32503 17.9999C6.02014 17.9998 5.71524 17.9999 5.41035 17.9999C5.06366 18 4.71698 18 4.37029 17.9998C4.19336 17.9998 4.01643 17.9997 3.83951 17.9998C3.67759 17.9999 3.51568 17.9999 3.35377 17.9997C3.29514 17.9997 3.23652 17.9997 3.1779 17.9998C3.09829 17.9999 3.01867 17.9998 2.93906 17.9996C2.91625 17.9997 2.89344 17.9998 2.86994 17.9998C2.72837 17.9993 2.59251 17.9854 2.45233 17.9624C2.45233 17.9405 2.45233 17.9187 2.45233 17.8962C2.35726 17.8853 2.2622 17.8744 2.16425 17.8632C2.16425 17.8413 2.16425 17.8195 2.16425 17.797C2.0882 17.7861 2.01214 17.7752 1.93378 17.7639C1.93378 17.7421 1.93378 17.7203 1.93378 17.6978C1.87675 17.6869 1.81971 17.676 1.76094 17.6647C1.76094 17.6429 1.76094 17.6211 1.76094 17.5986C1.73361 17.5959 1.70627 17.5931 1.67811 17.5903C1.64841 17.5821 1.6187 17.5739 1.58809 17.5655C1.56794 17.522 1.5487 17.4779 1.53047 17.4332C1.45686 17.4064 1.45686 17.4064 1.38643 17.4002C1.38643 17.3783 1.38643 17.3565 1.38643 17.334C1.34841 17.3231 1.31038 17.3122 1.2712 17.3009C1.2712 17.2791 1.2712 17.2573 1.2712 17.2348C1.22367 17.2239 1.17614 17.213 1.12716 17.2017C1.12716 17.1799 1.12716 17.1581 1.12716 17.1356C1.09864 17.1247 1.07012 17.1138 1.04074 17.1025C1.04074 17.0807 1.04074 17.0589 1.04074 17.0364C1.01222 17.0255 0.9837 17.0145 0.954316 17.0033C0.954316 16.9815 0.954316 16.9596 0.954316 16.9372C0.935303 16.9372 0.916289 16.9372 0.8967 16.9372C0.857698 16.8826 0.8193 16.8274 0.781468 16.7718C0.762455 16.7609 0.743442 16.75 0.723853 16.7387C0.720288 16.7121 0.716723 16.6855 0.71305 16.6581C0.707108 16.6301 0.701166 16.6022 0.695045 16.5734C0.65712 16.5502 0.618697 16.5281 0.579813 16.5072C0.558207 16.4369 0.558207 16.4369 0.551005 16.3749C0.531992 16.3749 0.512979 16.3749 0.493389 16.3749C0.483883 16.3204 0.474376 16.2658 0.464581 16.2096C0.445568 16.2096 0.426555 16.2096 0.406966 16.2096C0.397459 16.1441 0.387952 16.0786 0.378158 16.0112C0.359144 16.0112 0.340131 16.0112 0.320542 16.0112C0.311035 15.9457 0.301529 15.8802 0.291734 15.8127C0.272721 15.8127 0.253707 15.8127 0.234118 15.8127C0.224612 15.7254 0.215105 15.6381 0.20531 15.5482C0.186297 15.5482 0.167284 15.5482 0.147694 15.5482C0.0945246 15.4164 0.0797011 15.302 0.0720736 15.1575C0.0699198 15.1191 0.0677659 15.0807 0.0655468 15.0411C0.0634301 14.9974 0.0634301 14.9974 0.0612707 14.9529C0.0422574 14.9529 0.0232442 14.9529 0.00365484 14.9529C0.00299616 13.4409 0.00248825 11.929 0.0021838 10.417C0.00214777 10.2387 0.00211043 10.0604 0.00207237 9.88214C0.00206481 9.84664 0.0020573 9.81114 0.00204951 9.77456C0.00192399 9.19899 0.00169663 8.62341 0.00143213 8.04784C0.0011632 7.45771 0.00100299 6.86758 0.000944424 6.27746C0.0009048 5.913 0.000779311 5.54855 0.00054595 5.1841C0.000394249 4.93455 0.000347522 4.68499 0.000385066 4.43543C0.000403608 4.29122 0.000374136 4.14701 0.000220666 4.0028C8.14194e-05 3.871 7.29938e-05 3.73921 0.000172093 3.60741C0.000184358 3.55951 0.000146851 3.51162 5.71444e-05 3.46373C-5.70352e-05 3.39905 2.05565e-05 3.33437 0.000110113 3.2697C9.91741e-05 3.23364 8.81958e-05 3.19759 7.69252e-05 3.16044C0.00365482 3.08021 0.00365484 3.08021 0.0324627 3.04714C0.0480812 2.94046 0.0602908 2.83344 0.0728613 2.72624C0.0886269 2.6264 0.111611 2.54406 0.147694 2.45185C0.166708 2.45185 0.185721 2.45185 0.20531 2.45185C0.214817 2.36454 0.224323 2.27723 0.234118 2.18728C0.253131 2.18728 0.272145 2.18728 0.291734 2.18728C0.301241 2.1218 0.310747 2.05631 0.320542 1.98885C0.339555 1.98885 0.358568 1.98885 0.378158 1.98885C0.392418 1.89063 0.392418 1.89063 0.406966 1.79042C0.425979 1.79042 0.444992 1.79042 0.464581 1.79042C0.474088 1.73585 0.483595 1.68128 0.493389 1.62506C0.512403 1.62506 0.531416 1.62506 0.551005 1.62506C0.558729 1.59846 0.566453 1.57186 0.574412 1.54445C0.585701 1.51649 0.59699 1.48852 0.608621 1.45971C0.651401 1.44334 0.651401 1.44334 0.695045 1.42663C0.697718 1.3898 0.697718 1.3898 0.700446 1.35222C0.730928 1.23379 0.782405 1.20014 0.867892 1.12899C0.877399 1.10716 0.886905 1.08534 0.8967 1.06285C0.915713 1.06285 0.934726 1.06285 0.954316 1.06285C0.968576 1.01374 0.968576 1.01374 0.983124 0.963634C1.00214 0.963634 1.02115 0.963634 1.04074 0.963634C1.055 0.914523 1.055 0.914523 1.06955 0.864419C1.08856 0.864419 1.10757 0.864419 1.12716 0.864419C1.12716 0.842592 1.12716 0.820765 1.12716 0.798276C1.1747 0.787363 1.22223 0.776449 1.2712 0.765205C1.28546 0.716094 1.28546 0.716094 1.30001 0.66599C1.31902 0.66599 1.33804 0.66599 1.35763 0.66599C1.35763 0.644163 1.35763 0.622336 1.35763 0.599848C1.38496 0.597119 1.41229 0.594391 1.44045 0.59158C1.47016 0.583394 1.49987 0.575209 1.53047 0.566776C1.53998 0.544949 1.54949 0.523122 1.55928 0.500633C1.56879 0.478806 1.5783 0.456979 1.58809 0.43449C1.67811 0.409687 1.67811 0.409687 1.76094 0.401419C1.76094 0.379592 1.76094 0.357764 1.76094 0.335276C1.81798 0.324362 1.87502 0.313449 1.93378 0.302204C1.93378 0.280377 1.93378 0.25855 1.93378 0.236061C2.00984 0.225148 2.08589 0.214234 2.16425 0.20299C2.16425 0.181163 2.16425 0.159336 2.16425 0.136847C2.25931 0.125933 2.35438 0.11502 2.45233 0.103776C2.45233 0.0819484 2.45233 0.0601212 2.45233 0.0376326C2.61593 0.0107953 2.77393 -0.000161124 2.93906 0.000399431ZM2.85564 1.69121C2.85564 1.71303 2.85564 1.73486 2.85564 1.75735C2.8081 1.75735 2.76057 1.75735 2.7116 1.75735C2.7116 1.77918 2.7116 1.801 2.7116 1.82349C2.63555 1.83441 2.55949 1.84532 2.48114 1.85656C2.48114 1.87839 2.48114 1.90022 2.48114 1.92271C2.45321 1.9268 2.42528 1.93089 2.39651 1.93511C2.3674 1.94193 2.33828 1.94875 2.30829 1.95578C2.29878 1.9776 2.28927 1.99943 2.27948 2.02192C2.26225 2.02533 2.24502 2.02874 2.22727 2.03226C2.13596 2.0652 2.10488 2.13347 2.04902 2.22035C2.03238 2.23877 2.01574 2.25718 1.9986 2.27616C1.95597 2.31756 1.95597 2.31756 1.96259 2.38571C1.94477 2.39389 1.92694 2.40208 1.90858 2.41051C1.83647 2.45921 1.82344 2.49849 1.78975 2.58414C1.77073 2.59505 1.75172 2.60596 1.73213 2.61721C1.73213 2.64995 1.73213 2.68269 1.73213 2.71642C1.71312 2.71642 1.6941 2.71642 1.67451 2.71642C1.66501 2.79282 1.6555 2.86921 1.64571 2.94792C1.62669 2.94792 1.60768 2.94792 1.58809 2.94792C1.57858 3.04614 1.56908 3.14437 1.55928 3.24556C1.54027 3.24556 1.52126 3.24556 1.50167 3.24556C1.46887 3.55689 1.47286 3.8545 1.47286 4.17157C7.10077 4.17157 12.7287 4.17157 18.5271 4.17157C18.5291 3.7057 18.5291 3.7057 18.4983 3.24556C18.4793 3.24556 18.4603 3.24556 18.4407 3.24556C18.4312 3.14734 18.4217 3.04912 18.4119 2.94792C18.3929 2.94792 18.3739 2.94792 18.3543 2.94792C18.3448 2.87153 18.3353 2.79513 18.3255 2.71642C18.3065 2.71642 18.2875 2.71642 18.2679 2.71642C18.2679 2.68368 18.2679 2.65094 18.2679 2.61721C18.2489 2.60629 18.2298 2.59538 18.2103 2.58414C18.1811 2.52929 18.1523 2.47412 18.1238 2.41878C18.0473 2.29868 17.9663 2.21266 17.8646 2.12113C17.8551 2.09931 17.8455 2.07748 17.8358 2.05499C17.8167 2.04954 17.7977 2.04408 17.7781 2.03846C17.7591 2.033 17.7401 2.02754 17.7205 2.02192C17.711 2.00009 17.7015 1.97827 17.6917 1.95578C17.6044 1.93403 17.6044 1.93403 17.5189 1.92271C17.5189 1.90088 17.5189 1.87905 17.5189 1.85656C17.4618 1.84565 17.4048 1.83474 17.346 1.82349C17.346 1.80166 17.346 1.77984 17.346 1.75735C17.2795 1.75735 17.2129 1.75735 17.1444 1.75735C17.1444 1.73552 17.1444 1.71369 17.1444 1.69121C16.8641 1.64953 16.5851 1.65352 16.303 1.65393C16.2464 1.6539 16.1898 1.65384 16.1332 1.65378C15.978 1.65364 15.8229 1.65371 15.6678 1.65381C15.5003 1.65389 15.3328 1.65377 15.1654 1.65368C14.8375 1.65353 14.5095 1.65356 14.1816 1.65366C13.9151 1.65373 13.6486 1.65375 13.3821 1.65371C13.3442 1.6537 13.3062 1.6537 13.2671 1.65369C13.2094 1.65369 13.1517 1.65368 13.0939 1.65367C12.3726 1.65357 11.6513 1.65366 10.93 1.65384C10.2894 1.654 9.64884 1.65398 9.00826 1.65382C8.28826 1.65365 7.56825 1.65358 6.84824 1.65368C6.77146 1.65369 6.69467 1.6537 6.61789 1.65371C6.58012 1.65371 6.54234 1.65372 6.50342 1.65372C6.23724 1.65375 5.97106 1.6537 5.70488 1.65363C5.38049 1.65353 5.05609 1.65356 4.7317 1.65374C4.5662 1.65382 4.4007 1.65386 4.2352 1.65375C4.08366 1.65365 3.93212 1.6537 3.78058 1.65388C3.7258 1.65392 3.67102 1.6539 3.61624 1.65382C3.36084 1.65347 3.10941 1.65348 2.85564 1.69121ZM1.47286 7.28028C1.38902 11.0225 1.38902 11.0225 1.50167 14.7544C1.52068 14.7544 1.53969 14.7544 1.55928 14.7544C1.56879 14.8527 1.5783 14.9509 1.58809 15.0521C1.6071 15.0521 1.62612 15.0521 1.64571 15.0521C1.65521 15.1285 1.66472 15.2049 1.67451 15.2836C1.69353 15.2836 1.71254 15.2836 1.73213 15.2836C1.73213 15.3163 1.73213 15.3491 1.73213 15.3828C1.75114 15.3937 1.77016 15.4046 1.78975 15.4159C1.81894 15.4707 1.84768 15.5259 1.87617 15.5812C1.95272 15.7013 2.03372 15.7873 2.13544 15.8789C2.14495 15.9007 2.15445 15.9225 2.16425 15.945C2.18326 15.9505 2.20227 15.9559 2.22186 15.9615C2.24088 15.967 2.25989 15.9725 2.27948 15.9781C2.28899 15.9999 2.29849 16.0217 2.30829 16.0442C2.39556 16.066 2.39556 16.066 2.48114 16.0773C2.48114 16.0991 2.48114 16.1209 2.48114 16.1434C2.53817 16.1544 2.59521 16.1653 2.65398 16.1765C2.65398 16.1983 2.65398 16.2202 2.65398 16.2427C2.72053 16.2427 2.78708 16.2427 2.85564 16.2427C2.85564 16.2645 2.85564 16.2863 2.85564 16.3088C3.13593 16.3505 3.41492 16.3465 3.697 16.3461C3.75361 16.3461 3.81021 16.3462 3.86682 16.3462C4.02196 16.3464 4.17709 16.3463 4.33223 16.3462C4.4997 16.3461 4.66717 16.3462 4.83464 16.3463C5.16255 16.3465 5.49046 16.3464 5.81837 16.3463C6.08488 16.3463 6.35139 16.3463 6.61789 16.3463C6.6748 16.3463 6.6748 16.3463 6.73285 16.3463C6.79059 16.3463 6.84834 16.3463 6.90608 16.3463C7.6274 16.3464 8.34871 16.3463 9.07002 16.3462C9.71059 16.346 10.3512 16.346 10.9917 16.3462C11.7117 16.3464 12.4318 16.3464 13.1518 16.3463C13.2285 16.3463 13.3053 16.3463 13.3821 16.3463C13.4199 16.3463 13.4577 16.3463 13.4966 16.3463C13.7628 16.3462 14.0289 16.3463 14.2951 16.3464C14.6195 16.3465 14.9439 16.3464 15.2683 16.3463C15.4338 16.3462 15.5993 16.3461 15.7648 16.3463C15.9163 16.3464 16.0679 16.3463 16.2194 16.3461C16.2742 16.3461 16.329 16.3461 16.3838 16.3462C16.6392 16.3465 16.8906 16.3465 17.1444 16.3088C17.1444 16.287 17.1444 16.2651 17.1444 16.2427C17.1919 16.2427 17.2394 16.2427 17.2884 16.2427C17.2884 16.2208 17.2884 16.199 17.2884 16.1765C17.3645 16.1656 17.4405 16.1547 17.5189 16.1434C17.5189 16.1216 17.5189 16.0998 17.5189 16.0773C17.5468 16.0732 17.5747 16.0691 17.6035 16.0649C17.6326 16.0581 17.6617 16.0513 17.6917 16.0442C17.7012 16.0224 17.7107 16.0006 17.7205 15.9781C17.7378 15.9747 17.755 15.9713 17.7727 15.9677C17.864 15.9348 17.8951 15.8665 17.951 15.7797C17.9759 15.752 17.9759 15.752 18.0014 15.7238C18.044 15.6824 18.044 15.6824 18.0374 15.6143C18.0552 15.6061 18.0731 15.5979 18.0914 15.5895C18.1635 15.5408 18.1766 15.5015 18.2103 15.4159C18.2293 15.405 18.2483 15.394 18.2679 15.3828C18.2679 15.3501 18.2679 15.3173 18.2679 15.2836C18.2869 15.2836 18.3059 15.2836 18.3255 15.2836C18.335 15.2072 18.3445 15.1308 18.3543 15.0521C18.3733 15.0521 18.3923 15.0521 18.4119 15.0521C18.4214 14.9539 18.4309 14.8556 18.4407 14.7544C18.4597 14.7544 18.4787 14.7544 18.4983 14.7544C18.6948 12.2733 18.5271 9.77169 18.5271 7.28028C12.8992 7.28028 7.27131 7.28028 1.47286 7.28028Z" fill="#616161"/>
<path d="M3.92161 9.69458C4.87227 9.69458 5.82293 9.69458 6.8024 9.69458C6.8024 9.71641 6.8024 9.73823 6.8024 9.76072C6.87845 9.77164 6.9545 9.78255 7.03286 9.79379C7.03286 9.81562 7.03286 9.83745 7.03286 9.85994C7.0899 9.87085 7.14694 9.88176 7.20571 9.89301C7.20571 9.91484 7.20571 9.93666 7.20571 9.95915C7.23423 9.97007 7.26275 9.98098 7.29213 9.99222C7.29213 10.0141 7.29213 10.0359 7.29213 10.0584C7.32065 10.0584 7.34917 10.0584 7.37856 10.0584C7.37856 10.0802 7.37856 10.102 7.37856 10.1245C7.40708 10.1354 7.4356 10.1463 7.46498 10.1576C7.46498 10.1794 7.46498 10.2012 7.46498 10.2237C7.48399 10.2237 7.50301 10.2237 7.5226 10.2237C7.5321 10.2565 7.54161 10.2892 7.5514 10.3229C7.57042 10.3339 7.58943 10.3448 7.60902 10.356C7.67085 10.4789 7.69544 10.5426 7.69544 10.6867C7.71446 10.6867 7.73347 10.6867 7.75306 10.6867C7.78114 10.7948 7.78552 10.8924 7.78559 11.005C7.78569 11.0423 7.78578 11.0796 7.78587 11.118C7.78578 11.1782 7.78578 11.1782 7.78569 11.2396C7.78572 11.281 7.78575 11.3223 7.78578 11.3649C7.7858 11.4523 7.78576 11.5397 7.78562 11.6271C7.78546 11.739 7.78555 11.8509 7.78573 11.9627C7.78586 12.0696 7.78576 12.1765 7.78569 12.2835C7.78575 12.3236 7.78581 12.3637 7.78587 12.4051C7.78573 12.461 7.78573 12.461 7.78559 12.5181C7.78557 12.5509 7.78555 12.5837 7.78553 12.6175C7.78222 12.6956 7.77248 12.7617 7.75306 12.8364C7.73405 12.8364 7.71503 12.8364 7.69544 12.8364C7.6901 12.8814 7.6901 12.8814 7.68464 12.9273C7.6602 13.0732 7.62301 13.1702 7.5226 13.2663C7.50358 13.2663 7.48457 13.2663 7.46498 13.2663C7.45547 13.31 7.44597 13.3536 7.43617 13.3986C7.41716 13.3986 7.39815 13.3986 7.37856 13.3986C7.36905 13.4313 7.35954 13.4641 7.34975 13.4978C7.32123 13.4978 7.29271 13.4978 7.26332 13.4978C7.26332 13.5196 7.26332 13.5415 7.26332 13.5639C7.24431 13.5639 7.2253 13.5639 7.20571 13.5639C7.20571 13.5858 7.20571 13.6076 7.20571 13.6301C7.12015 13.6465 7.12015 13.6465 7.03286 13.6632C7.03286 13.685 7.03286 13.7068 7.03286 13.7293C6.95681 13.7402 6.88076 13.7511 6.8024 13.7624C6.8024 13.7842 6.8024 13.806 6.8024 13.8285C5.85174 13.8285 4.90108 13.8285 3.92161 13.8285C3.92161 13.8067 3.92161 13.7849 3.92161 13.7624C3.82179 13.746 3.82179 13.746 3.71995 13.7293C3.71995 13.7075 3.71995 13.6856 3.71995 13.6632C3.69262 13.6604 3.66529 13.6577 3.63713 13.6549C3.59257 13.6426 3.59257 13.6426 3.5471 13.6301C3.52696 13.5865 3.50772 13.5424 3.48949 13.4978C3.46691 13.493 3.44433 13.4882 3.42107 13.4833C3.34545 13.4647 3.34545 13.4647 3.27883 13.3862C3.23022 13.2994 3.23022 13.2994 3.23022 13.2002C3.2017 13.1892 3.17318 13.1783 3.14379 13.1671C3.14379 13.1343 3.14379 13.1016 3.14379 13.0679C3.12478 13.0679 3.10577 13.0679 3.08618 13.0679C3.08618 13.0242 3.08618 12.9806 3.08618 12.9356C3.06716 12.9356 3.04815 12.9356 3.02856 12.9356C3.01906 12.8592 3.00955 12.7828 2.99975 12.7041C2.98074 12.7041 2.96173 12.7041 2.94214 12.7041C2.94214 12.082 2.94214 11.4599 2.94214 10.819C2.96115 10.819 2.98017 10.819 2.99975 10.819C3.00332 10.7835 3.00688 10.7481 3.01056 10.7115C3.02558 10.6081 3.04011 10.5434 3.08618 10.4552C3.10519 10.4552 3.1242 10.4552 3.14379 10.4552C3.1533 10.4116 3.16281 10.3679 3.1726 10.3229C3.19162 10.3229 3.21063 10.3229 3.23022 10.3229C3.23319 10.2977 3.23616 10.2725 3.23922 10.2465C3.26038 10.1515 3.27837 10.1169 3.34545 10.0584C3.36446 10.0584 3.38348 10.0584 3.40307 10.0584C3.40307 10.0365 3.40307 10.0147 3.40307 9.99222C3.43956 9.96993 3.4762 9.94794 3.5129 9.92608C3.53328 9.9138 3.55367 9.90152 3.57467 9.88887C3.63353 9.85994 3.63353 9.85994 3.71995 9.85994C3.71995 9.83811 3.71995 9.81628 3.71995 9.79379C3.81977 9.77742 3.81977 9.77742 3.92161 9.76072C3.92161 9.7389 3.92161 9.71707 3.92161 9.69458Z" fill="#616161"/>
</svg>
