<svg width="22" height="23" viewBox="0 0 22 23" fill="none" xmlns="http://www.w3.org/2000/svg">
<path d="M10.9932 20.3272L10.9911 20.3272C10.0049 20.3297 9.02184 20.1866 8.06719 19.9009L7.73989 19.8029L7.44279 19.9716C6.79978 20.3367 5.31971 21.0506 2.84123 21.5828C3.23823 20.3783 3.57166 18.9362 3.68673 17.5883L3.71605 17.2449L3.48663 16.9877C1.96211 15.2787 1.04219 13.0464 1.04219 10.607C1.04219 5.25505 5.48131 0.886914 10.9932 0.886914C16.5051 0.886914 20.9443 5.25505 20.9443 10.607C20.9443 15.959 16.5051 20.3272 10.9932 20.3272ZM7.83779 20.6673C8.8669 20.9753 9.92789 21.1299 10.9932 21.1272L1.8535 21.9778C1.74733 22.2573 1.95295 22.5699 2.22038 22.5218C5.25217 21.9658 7.05431 21.1121 7.83779 20.6673Z" fill="#F9D052" stroke="#F9D052" stroke-width="1.6"/>
</svg>
