<svg width="22" height="23" viewBox="0 0 22 23" fill="none" xmlns="http://www.w3.org/2000/svg">
<path d="M18.1349 3.06617C18.1934 3.11445 18.1934 3.11445 18.253 3.16369C18.8461 3.66481 19.393 4.19646 19.8554 4.81234C19.8788 4.84345 19.9023 4.87456 19.9264 4.90662C21.5298 7.06381 22.2082 9.72722 21.7941 12.3545C21.6301 13.2753 21.3496 14.1608 20.9369 15.0062C20.9132 15.0553 20.9132 15.0553 20.8891 15.1054C20.4608 15.987 19.9069 16.7806 19.2196 17.4955C19.1295 17.5899 19.0438 17.6865 18.9583 17.7847C18.5302 18.2544 18.0214 18.6531 17.4959 19.0177C17.4695 19.0362 17.4431 19.0548 17.4159 19.074C15.6891 20.2767 13.5281 20.9447 11.4004 20.9998C11.3454 21.0017 11.2904 21.0036 11.2337 21.0055C10.3155 21.022 9.4165 20.9109 8.5201 20.727C8.47408 20.7177 8.42806 20.7084 8.38064 20.6989C8.25434 20.6695 8.25434 20.6695 8.153 20.6315C7.98935 20.5724 7.89718 20.5635 7.72859 20.6176C7.56876 20.6888 7.41411 20.7664 7.25891 20.8464C7.14048 20.9048 7.02143 20.9619 6.90214 21.0186C6.87173 21.0331 6.84133 21.0476 6.81 21.0625C5.52942 21.6641 3.45911 22.4315 2.01139 22.3212C1.8885 22.2534 1.8885 22.2534 1.81476 22.1325C1.78027 21.7611 1.88234 21.4786 2.01446 21.1325C2.4004 20.0704 2.66553 18.9565 2.7979 17.8378C2.8025 17.8033 2.80709 17.7688 2.81183 17.7332C2.82985 17.4989 2.76495 17.382 2.61316 17.2114C2.58693 17.1836 2.56071 17.1557 2.53369 17.127C2.47892 17.065 2.42439 17.0028 2.37008 16.9404C2.32898 16.8935 2.32898 16.8935 2.28704 16.8456C0.661182 14.9281 -0.0108104 12.2787 0.216965 9.84715C0.485105 7.44652 1.56642 5.37239 3.28948 3.6325C3.33453 3.58632 3.33453 3.58632 3.38049 3.53922C3.6249 3.29567 3.89874 3.08733 4.1743 2.8774C4.22411 2.83877 4.27392 2.80014 4.32523 2.76034C4.71281 2.46332 5.11842 2.21338 5.5507 1.98072C5.58606 1.96148 5.62142 1.94225 5.65785 1.92244C9.57152 -0.189449 14.7222 0.23075 18.1349 3.06617ZM4.5184 4.90673C4.47145 4.94798 4.47145 4.94798 4.42355 4.99006C4.12465 5.26191 3.87896 5.58172 3.63358 5.8978C3.61284 5.9243 3.5921 5.9508 3.57074 5.97811C2.63452 7.19284 2.0175 8.8068 1.99968 10.3268C1.9992 10.3611 1.99872 10.3953 1.99822 10.4306C1.98944 11.2181 2.00695 11.9724 2.20802 12.7409C2.21829 12.781 2.22857 12.821 2.23915 12.8623C2.57906 14.1463 3.24199 15.3142 4.16201 16.2981C4.19763 16.3365 4.23324 16.3748 4.26993 16.4143C4.36574 16.5158 4.36574 16.5158 4.46579 16.589C4.56628 16.6722 4.61438 16.7285 4.66587 16.8468C4.68636 17.1336 4.65168 17.4114 4.61672 17.6962C4.60716 17.7837 4.59762 17.8713 4.58811 17.9588C4.50505 18.6801 4.36888 19.3912 4.22346 20.1031C5.29895 19.8335 6.40079 19.4466 7.33188 18.8558C7.52311 18.7441 7.63974 18.7051 7.85881 18.7528C7.892 18.7623 7.9252 18.7719 7.9594 18.7817C7.99697 18.7914 8.03454 18.801 8.07324 18.811C8.19881 18.8445 8.32328 18.8807 8.4479 18.9174C8.90449 19.0472 9.35565 19.1427 9.82737 19.2064C9.85923 19.2109 9.89109 19.2153 9.92391 19.2199C10.2796 19.2643 10.6366 19.2651 10.9949 19.2654C11.0285 19.2655 11.0621 19.2655 11.0968 19.2655C11.6833 19.2647 12.2505 19.2255 12.826 19.1121C12.8662 19.1042 12.9065 19.0964 12.948 19.0883C15.3052 18.6119 17.3714 17.2594 18.709 15.339C19.9184 13.5373 20.4059 11.301 19.952 9.19233C19.45 6.99908 18.1411 5.01581 16.1569 3.78533C12.381 1.49159 7.75223 1.98781 4.5184 4.90673Z" fill="#A0A0A0"/>
</svg>
