<svg width="16" height="17" viewBox="0 0 16 17" fill="none" xmlns="http://www.w3.org/2000/svg">
<path d="M9.07401 2.81934V1.83934C9.66521 1.88825 10.2489 2.00483 10.8139 2.18684L11.224 0.919338C9.39704 0.326855 7.43118 0.326855 5.60425 0.919338L6.01436 2.18684C6.57928 2.00483 7.16301 1.88825 7.75421 1.83934V2.81934C6.01569 2.99042 4.40923 3.8276 3.26761 5.15746C2.12599 6.48732 1.53672 8.20793 1.62186 9.96285C1.70701 11.7178 2.46004 13.3725 3.72497 14.5842C4.9899 15.7959 6.66978 16.4718 8.41659 16.4718C10.1634 16.4718 11.8433 15.7959 13.1082 14.5842C14.3731 13.3725 15.1262 11.7178 15.2113 9.96285C15.2965 8.20793 14.7072 6.48732 13.5656 5.15746C12.424 3.8276 10.8175 2.99042 9.07898 2.81934H9.07401ZM8.41038 15.1418C7.32889 15.1418 6.27169 14.8193 5.37246 14.2149C4.47324 13.6106 3.77238 12.7516 3.35851 11.7466C2.94464 10.7416 2.83636 9.63574 3.04734 8.56884C3.25833 7.50195 3.77912 6.52194 4.54385 5.75275C5.30857 4.98356 6.2829 4.45974 7.34361 4.24752C8.40431 4.0353 9.50377 4.14422 10.5029 4.5605C11.5021 4.97678 12.3561 5.68173 12.9569 6.5862C13.5578 7.49067 13.8785 8.55404 13.8785 9.64184C13.8785 11.1005 13.3024 12.4995 12.2769 13.5309C11.2514 14.5624 9.86061 15.1418 8.41038 15.1418Z" fill="#F9D052"/>
<path d="M14.8305 5.1993L15.9216 4.4493C15.2912 3.5273 14.4976 2.72986 13.5802 2.0968L12.8346 3.1943C13.6164 3.73394 14.293 4.41357 14.8305 5.1993Z" fill="#F9D052"/>
<path d="M4.00358 3.18686L3.25793 2.08936C2.33883 2.72193 1.54345 3.51941 0.911621 4.44186L2.00276 5.19186C2.54171 4.40567 3.21996 3.72601 4.00358 3.18686Z" fill="#F9D052"/>
<path d="M10.4013 10.4743L9.07406 9.47434V5.80684C9.0796 5.71592 9.06658 5.62481 9.0358 5.53914C9.00502 5.45347 8.95712 5.37504 8.89507 5.30868C8.83302 5.24232 8.75812 5.18945 8.67499 5.1533C8.59185 5.11716 8.50224 5.09851 8.41168 5.09851C8.32111 5.09851 8.2315 5.11716 8.14836 5.1533C8.06523 5.18945 7.99033 5.24232 7.92828 5.30868C7.86623 5.37504 7.81834 5.45347 7.78755 5.53914C7.75677 5.62481 7.74375 5.71592 7.74929 5.80684V9.80684C7.74855 9.85838 7.75524 9.90974 7.76917 9.95934C7.77869 10.0086 7.79633 10.0559 7.82137 10.0993C7.83729 10.1437 7.86178 10.1845 7.89345 10.2193C7.90088 10.2279 7.90754 10.2371 7.91333 10.2468C7.94179 10.2791 7.97343 10.3085 8.00778 10.3343L8.03512 10.3543L10.6598 12.3343C10.7732 12.4236 10.9135 12.4713 11.0575 12.4693C11.1618 12.4702 11.2648 12.447 11.3588 12.4015C11.4527 12.356 11.535 12.2894 11.5993 12.2068C11.7041 12.0652 11.7489 11.8875 11.7237 11.7127C11.6986 11.5379 11.6056 11.3803 11.4651 11.2743L10.4013 10.4743Z" fill="#F9D052"/>
</svg>
