<svg width="22" height="21" viewBox="0 0 22 21" fill="none" xmlns="http://www.w3.org/2000/svg">
<path d="M13.382 1.2168C13.7682 1.2169 14.1447 1.33853 14.458 1.56446C14.7713 1.79039 15.0056 2.10918 15.1276 2.47565L15.6273 3.97744H18.6456C18.8897 3.97744 19.1237 4.07439 19.2963 4.24697C19.4689 4.41954 19.5658 4.6536 19.5658 4.89766C19.5658 5.14171 19.4689 5.37577 19.2963 5.54835C19.1237 5.72092 18.8897 5.81787 18.6456 5.81787L18.6428 5.88321L17.845 17.0574C17.7952 17.7536 17.4835 18.4052 16.9727 18.8808C16.4618 19.3565 15.7898 19.621 15.0917 19.6211H7.47604C6.77802 19.621 6.10594 19.3565 5.59509 18.8808C5.08424 18.4052 4.77255 17.7536 4.72275 17.0574L3.92493 5.88229C3.92326 5.86085 3.92234 5.83937 3.92217 5.81787C3.67811 5.81787 3.44405 5.72092 3.27148 5.54835C3.0989 5.37577 3.00195 5.14171 3.00195 4.89766C3.00195 4.6536 3.0989 4.41954 3.27148 4.24697C3.44405 4.07439 3.67811 3.97744 3.92217 3.97744H6.94047L7.44015 2.47565C7.56226 2.10903 7.79667 1.79014 8.11016 1.56419C8.42364 1.33825 8.80029 1.2167 9.18672 1.2168H13.382ZM16.8024 5.81787H5.76536L6.55858 16.9258C6.5751 17.1579 6.67892 17.3751 6.84915 17.5337C7.01938 17.6923 7.24337 17.7806 7.47604 17.7807H15.0917C15.3244 17.7806 15.5484 17.6923 15.7186 17.5337C15.8888 17.3751 15.9927 17.1579 16.0092 16.9258L16.8024 5.81787ZM9.44346 8.57852C9.66885 8.57855 9.88639 8.66129 10.0548 8.81107C10.2233 8.96084 10.3309 9.16722 10.3572 9.39107L10.3637 9.49873V14.0998C10.3634 14.3343 10.2736 14.5599 10.1126 14.7305C9.95158 14.901 9.73153 15.0037 9.49739 15.0174C9.26325 15.0312 9.03269 14.955 8.85283 14.8044C8.67297 14.6539 8.55739 14.4404 8.52968 14.2075L8.52324 14.0998V9.49873C8.52324 9.25467 8.62019 9.02061 8.79277 8.84804C8.96534 8.67547 9.1994 8.57852 9.44346 8.57852ZM13.1243 8.57852C13.3684 8.57852 13.6024 8.67547 13.775 8.84804C13.9476 9.02061 14.0445 9.25467 14.0445 9.49873V14.0998C14.0445 14.3439 13.9476 14.5779 13.775 14.7505C13.6024 14.9231 13.3684 15.02 13.1243 15.02C12.8803 15.02 12.6462 14.9231 12.4736 14.7505C12.3011 14.5779 12.2041 14.3439 12.2041 14.0998V9.49873C12.2041 9.25467 12.3011 9.02061 12.4736 8.84804C12.6462 8.67547 12.8803 8.57852 13.1243 8.57852ZM13.382 3.05723H9.1858L8.87937 3.97744H13.6884L13.382 3.05723Z" fill="white"/>
</svg>
