<svg width="44" height="43" viewBox="0 0 44 43" fill="none" xmlns="http://www.w3.org/2000/svg">
<ellipse cx="21.5448" cy="21.747" rx="21.5052" ry="21.2529" fill="#F9D052"/>
<path d="M26.7414 13.2008C27.218 13.4967 27.5993 13.9232 27.8387 14.4283C28.0867 14.9281 28.1819 15.4878 28.1123 16.0374L26.5146 31.7217C26.4761 32.1622 26.3334 32.5859 26.0999 32.96C26.0019 33.1169 25.8867 33.2631 25.757 33.3943C25.3301 33.856 24.7604 34.1632 24.1359 34.2684C23.5103 34.3764 22.8639 34.2792 22.2939 33.9913C21.7239 33.7034 21.2611 33.2405 20.9751 32.672L18.6883 27.1886C18.5673 27.0187 18.4132 26.8753 18.2361 26.7648C18.0454 26.6452 17.8298 26.5712 17.6065 26.5485L12.0541 26.8306C11.4104 26.816 10.7872 26.5886 10.2832 26.1845C9.79676 25.8002 9.44374 25.2739 9.27493 24.6812C9.10612 24.0885 9.13022 23.4601 9.34377 22.8864C9.56153 22.3114 9.95248 21.8189 10.4637 21.4754L23.6121 13.1803C24.0799 12.8925 24.6212 12.7419 25.1743 12.7455C25.7275 12.7491 26.2704 12.9069 26.7414 13.2008Z" fill="#1B1D1C"/>
</svg>
