<svg width="55" height="55" viewBox="0 0 55 55" fill="none" xmlns="http://www.w3.org/2000/svg">
<circle cx="27.5259" cy="27.2515" r="27.0269" fill="#1B1D1C"/>
<path fill-rule="evenodd" clip-rule="evenodd" d="M19.2918 27.2515C19.2919 25.667 19.7493 24.1162 20.609 22.7851C21.4686 21.4541 22.6941 20.3994 24.1383 19.7476C25.5825 19.0958 27.1842 18.8745 28.751 19.1104C30.3179 19.3462 31.7834 20.0292 32.9717 21.0773C34.16 22.1254 35.0207 23.4941 35.4504 25.0192C35.8801 26.5444 35.8607 28.1611 35.3943 29.6754C34.928 31.1897 34.0346 32.5373 32.8214 33.5565C31.6082 34.5757 30.1267 35.2232 28.5546 35.4213V29.3099H30.613C30.886 29.3099 31.1477 29.2014 31.3407 29.0084C31.5338 28.8154 31.6422 28.5536 31.6422 28.2807C31.6422 28.0077 31.5338 27.7459 31.3407 27.5529C31.1477 27.3599 30.886 27.2515 30.613 27.2515H28.5546V25.1931C28.5546 24.9201 28.663 24.6583 28.856 24.4653C29.049 24.2723 29.3108 24.1639 29.5838 24.1639H30.0984C30.3714 24.1639 30.6331 24.0554 30.8261 23.8624C31.0192 23.6694 31.1276 23.4076 31.1276 23.1347C31.1276 22.8617 31.0192 22.5999 30.8261 22.4069C30.6331 22.2139 30.3714 22.1055 30.0984 22.1055H29.5838C28.7649 22.1055 27.9796 22.4308 27.4005 23.0098C26.8215 23.5888 26.4962 24.3742 26.4962 25.1931V27.2515H24.4378C24.1648 27.2515 23.9031 27.3599 23.71 27.5529C23.517 27.7459 23.4086 28.0077 23.4086 28.2807C23.4086 28.5536 23.517 28.8154 23.71 29.0084C23.9031 29.2014 24.1648 29.3099 24.4378 29.3099H26.4962V35.4213C24.5064 35.1703 22.6766 34.2019 21.3502 32.6977C20.0238 31.1935 19.2918 29.257 19.2918 27.2515ZM27.5254 37.5435C33.2097 37.5435 37.8174 32.9357 37.8174 27.2515C37.8174 21.5672 33.2097 16.9595 27.5254 16.9595C21.8411 16.9595 17.2334 21.5672 17.2334 27.2515C17.2334 32.9357 21.8411 37.5435 27.5254 37.5435Z" fill="white"/>
</svg>
