<svg width="19" height="19" viewBox="0 0 19 19" fill="none" xmlns="http://www.w3.org/2000/svg">
<path d="M17.2806 5.98839C17.7146 5.98839 18.1308 6.1608 18.4377 6.46769C18.7446 6.77459 18.917 7.19082 18.917 7.62483V10.8977C18.917 11.3317 18.7446 11.748 18.4377 12.0549C18.1308 12.3618 17.7146 12.5342 17.2806 12.5342H16.4117C16.2123 14.116 15.4424 15.5707 14.2466 16.6253C13.0508 17.6798 11.5113 18.2617 9.91699 18.2617V16.6253C11.219 16.6253 12.4676 16.108 13.3882 15.1874C14.3089 14.2667 14.8261 13.018 14.8261 11.7159V6.80661C14.8261 5.50458 14.3089 4.25587 13.3882 3.33519C12.4676 2.41451 11.219 1.89728 9.91699 1.89728C8.61502 1.89728 7.36637 2.41451 6.44574 3.33519C5.52511 4.25587 5.0079 5.50458 5.0079 6.80661V12.5342H2.55336C2.11937 12.5342 1.70315 12.3618 1.39627 12.0549C1.08939 11.748 0.916992 11.3317 0.916992 10.8977V7.62483C0.916992 7.19082 1.08939 6.77459 1.39627 6.46769C1.70315 6.1608 2.11937 5.98839 2.55336 5.98839H3.42226C3.62193 4.40668 4.39188 2.95219 5.58764 1.89783C6.78341 0.843477 8.32281 0.261719 9.91699 0.261719C11.5112 0.261719 13.0506 0.843477 14.2463 1.89783C15.4421 2.95219 16.2121 4.40668 16.4117 5.98839H17.2806ZM6.4479 12.3582L7.31517 10.9705C8.09496 11.459 8.99684 11.7174 9.91699 11.7159C10.8371 11.7174 11.739 11.459 12.5188 10.9705L13.3861 12.3582C12.3464 13.0097 11.1439 13.3543 9.91699 13.3524C8.69009 13.3543 7.48758 13.0097 6.4479 12.3582Z" fill="white"/>
</svg>
