<svg width="22" height="22" viewBox="0 0 22 22" fill="none" xmlns="http://www.w3.org/2000/svg">
<path d="M11.2395 16.4689C11.5471 16.4689 11.8072 16.3626 12.0198 16.15C12.2325 15.9373 12.3385 15.6775 12.3379 15.3705C12.3379 15.063 12.2319 14.8029 12.0198 14.5902C11.8078 14.3776 11.5477 14.2715 11.2395 14.2721C10.932 14.2721 10.6721 14.3784 10.4601 14.5911C10.248 14.8037 10.1417 15.0636 10.1411 15.3705C10.1411 15.6781 10.2474 15.9382 10.4601 16.1508C10.6727 16.3635 10.9325 16.4695 11.2395 16.4689ZM10.4486 13.0858H12.0743C12.0743 12.6025 12.1294 12.2217 12.2395 11.9435C12.3496 11.6652 12.6607 11.2844 13.1727 10.8011C13.5535 10.4203 13.8537 10.0577 14.0734 9.71323C14.2931 9.36876 14.403 8.95517 14.403 8.47245C14.403 7.6523 14.1027 7.02254 13.5023 6.58317C12.9018 6.1438 12.1915 5.92412 11.3713 5.92412C10.5365 5.92412 9.85931 6.1438 9.33968 6.58317C8.82006 7.02254 8.45743 7.54978 8.25181 8.1649L9.70172 8.73607C9.77495 8.47245 9.93986 8.18686 10.1964 7.87931C10.453 7.57175 10.8447 7.41797 11.3713 7.41797C11.84 7.41797 12.1915 7.54627 12.4258 7.80286C12.6601 8.05945 12.7773 8.34123 12.7773 8.6482C12.7773 8.94111 12.6894 9.21586 12.5137 9.47245C12.3379 9.72904 12.1182 9.96689 11.8546 10.186C11.2102 10.7572 10.8148 11.1892 10.6683 11.4821C10.5219 11.775 10.4486 12.3096 10.4486 13.0858ZM11.2834 19.9839C10.0679 19.9839 8.92551 19.7534 7.85638 19.2923C6.78725 18.8313 5.85726 18.205 5.06639 17.4136C4.27553 16.6227 3.64958 15.6927 3.18854 14.6236C2.72749 13.5545 2.49668 12.4121 2.49609 11.1965C2.49609 9.98095 2.72691 8.83859 3.18854 7.76946C3.65017 6.70034 4.27612 5.77034 5.06639 4.97948C5.85726 4.18862 6.78725 3.56267 7.85638 3.10162C8.92551 2.64058 10.0679 2.40977 11.2834 2.40918C12.499 2.40918 13.6414 2.63999 14.7105 3.10162C15.7796 3.56325 16.7096 4.1892 17.5005 4.97948C18.2914 5.77034 18.9176 6.70034 19.3792 7.76946C19.8409 8.83859 20.0714 9.98095 20.0708 11.1965C20.0708 12.4121 19.84 13.5545 19.3784 14.6236C18.9167 15.6927 18.2908 16.6227 17.5005 17.4136C16.7096 18.2044 15.7796 18.8307 14.7105 19.2923C13.6414 19.7539 12.499 19.9845 11.2834 19.9839ZM11.2834 18.2264C13.246 18.2264 14.9082 17.5454 16.2703 16.1834C17.6323 14.8213 18.3133 13.159 18.3133 11.1965C18.3133 9.23402 17.6323 7.57175 16.2703 6.20971C14.9082 4.84767 13.246 4.16665 11.2834 4.16665C9.32094 4.16665 7.65866 4.84767 6.29662 6.20971C4.93458 7.57175 4.25356 9.23402 4.25356 11.1965C4.25356 13.159 4.93458 14.8213 6.29662 16.1834C7.65866 17.5454 9.32094 18.2264 11.2834 18.2264Z" fill="white"/>
</svg>
