<svg width="25" height="25" viewBox="0 0 25 25" fill="none" xmlns="http://www.w3.org/2000/svg">
<path fill-rule="evenodd" clip-rule="evenodd" d="M12.5268 2.23816C11.8052 2.389 12.0254 2.19687 6.54714 7.455C3.77439 10.1163 1.42949 12.3928 1.33628 12.5139C0.928038 13.044 1.0293 13.6935 1.57956 14.074C1.74698 14.1898 1.84644 14.2196 2.11151 14.2332C2.55526 14.256 2.75143 14.1661 3.22388 13.7237L3.61268 13.3597V17.6941C3.61268 21.8131 3.61738 22.0433 3.70744 22.3216C3.88535 22.8716 4.3019 23.3509 4.85286 23.6393C5.39017 23.9206 5.13304 23.912 13.0444 23.9129C17.7747 23.9135 20.3945 23.8967 20.5699 23.8646C21.2001 23.7496 21.892 23.2767 22.1833 22.7618C22.5019 22.1985 22.4836 22.478 22.513 17.7175L22.5397 13.3737L22.8897 13.7155C23.358 14.1728 23.535 14.2576 23.9709 14.2339C24.2496 14.2188 24.3491 14.1894 24.5253 14.0704C24.972 13.7686 25.1324 13.1499 24.881 12.6986C24.7965 12.5471 23.1503 10.934 19.6234 7.54675C14.0184 2.16367 14.2769 2.38886 13.5272 2.23599C13.1178 2.15256 12.9345 2.15294 12.5268 2.23816ZM9.40045 7.7832L5.81246 11.2359L5.82521 16.4802L5.83791 21.7245L7.62216 21.7371L9.4064 21.7497L9.4248 19.4516C9.44265 17.2228 9.4465 17.1448 9.55346 16.8687C9.84294 16.1212 10.413 15.6142 11.1885 15.4146C11.5438 15.3231 14.5335 15.3231 14.8889 15.4146C15.6803 15.6183 16.3167 16.2047 16.5661 16.9598C16.6534 17.2242 16.6521 17.187 16.6584 19.596L16.6641 21.7497L18.4518 21.7371L20.2395 21.7245L20.2522 16.4561L20.2649 11.1877L16.7019 7.75914C14.7423 5.87342 13.1051 4.33053 13.0637 4.33053C13.0223 4.33053 11.3738 5.88425 9.40045 7.7832ZM11.6969 17.4983C11.6785 17.5159 11.6635 18.4794 11.6635 19.6395V21.7485H13.0637H14.4638V19.6651C14.4638 18.1089 14.4486 17.5671 14.4038 17.524C14.3602 17.482 13.9867 17.4662 13.037 17.4662C12.3183 17.4662 11.7152 17.4806 11.6969 17.4983Z" fill="#A4A4A4"/>
</svg>
