<svg width="25" height="26" viewBox="0 0 25 26" fill="none" xmlns="http://www.w3.org/2000/svg">
<path d="M12.569 2.6033C12.4924 2.59983 12.4158 2.59635 12.3369 2.59277C11.459 2.77291 10.8332 3.51138 10.2263 4.12576C10.1263 4.22583 10.0262 4.32583 9.92606 4.42576C9.65617 4.69552 9.38731 4.96629 9.11868 5.23732C8.89403 5.46379 8.66888 5.68976 8.44373 5.91572C7.91292 6.44846 7.38295 6.98203 6.85351 7.51615C6.30728 8.06718 5.75972 8.61686 5.21149 9.16589C4.74024 9.63791 4.26977 10.1107 3.79995 10.5842C3.51956 10.8667 3.23889 11.149 2.95748 11.4305C2.69338 11.6947 2.43028 11.9599 2.16793 12.2259C2.07142 12.3235 1.97456 12.4206 1.87733 12.5174C1.7449 12.6494 1.61377 12.7826 1.4829 12.9161C1.40912 12.9904 1.33535 13.0647 1.25935 13.1412C1.08539 13.3732 1.06518 13.4746 1.10315 13.758C1.97446 13.7663 2.83269 13.7597 3.70072 13.6763C3.69505 13.7313 3.68938 13.7862 3.68354 13.8429C3.60037 14.763 3.60468 15.6825 3.60306 16.6056C3.60271 16.7381 3.60271 16.7381 3.60236 16.8733C3.60115 17.3396 3.6004 17.8059 3.60005 18.2722C3.5996 18.7523 3.59764 19.2325 3.59534 19.7127C3.59383 20.0837 3.5934 20.4547 3.59328 20.8258C3.59303 21.0028 3.59239 21.1799 3.59132 21.357C3.58993 21.6044 3.59009 21.8517 3.59061 22.0992C3.58949 22.2077 3.58949 22.2077 3.58835 22.3184C3.59211 22.8851 3.70126 23.3666 4.04571 23.8303C4.51834 24.2951 4.95804 24.3228 5.59461 24.3227C5.69111 24.3214 5.78761 24.3201 5.88703 24.3188C5.98713 24.3185 6.08722 24.3181 6.19035 24.3178C6.50877 24.3164 6.82714 24.3133 7.14555 24.3102C7.36196 24.3088 7.57837 24.3079 7.79478 24.3069C8.32417 24.3042 8.85354 24.3001 9.38291 24.2949C9.38339 24.2151 9.38386 24.1354 9.38435 24.0532C9.389 23.3009 9.39491 22.5486 9.40205 21.7962C9.40567 21.4095 9.40886 21.0227 9.41103 20.636C9.41315 20.2626 9.41643 19.8892 9.42051 19.5158C9.42186 19.3735 9.4228 19.2312 9.42331 19.0889C9.42409 18.8892 9.42637 18.6897 9.42899 18.49C9.42887 18.4314 9.42876 18.3729 9.42864 18.3125C9.43563 17.9347 9.49567 17.666 9.70761 17.3519C9.99809 17.1808 10.2592 17.1677 10.5915 17.1662C10.6857 17.1654 10.78 17.1646 10.8772 17.1638C10.9783 17.1639 11.0794 17.1639 11.1836 17.164C11.3405 17.1635 11.3405 17.1635 11.5005 17.163C11.7215 17.1623 11.9425 17.1624 12.1635 17.1628C12.4459 17.1633 12.7281 17.1619 13.0105 17.16C13.2809 17.1585 13.5513 17.1588 13.8218 17.1589C13.9228 17.1582 14.0238 17.1574 14.1278 17.1566C14.7999 17.1461 14.7999 17.1461 15.3898 17.4336C15.5692 17.7749 15.5769 18.1031 15.578 18.4808C15.5788 18.5438 15.5797 18.6068 15.5805 18.6717C15.583 18.8789 15.5844 19.0862 15.5858 19.2935C15.5873 19.4376 15.5889 19.5817 15.5905 19.7258C15.5947 20.1043 15.5979 20.4828 15.6009 20.8614C15.6042 21.2479 15.6083 21.6345 15.6124 22.021C15.6202 22.779 15.6271 23.5369 15.6333 24.2949C16.2254 24.3025 16.8174 24.3083 17.4095 24.3118C17.6845 24.3135 17.9595 24.3158 18.2344 24.3195C18.5512 24.3235 18.8679 24.3254 19.1847 24.3268C19.3315 24.3293 19.3315 24.3293 19.4812 24.3319C20.0921 24.3321 20.5691 24.2883 21.0354 23.8499C21.3499 23.496 21.4068 23.2145 21.4072 22.7545C21.4076 22.635 21.4076 22.635 21.408 22.513C21.4078 22.4261 21.4076 22.3392 21.4075 22.2497C21.4076 22.1117 21.4076 22.1117 21.4078 21.971C21.4079 21.6668 21.4074 21.3625 21.4068 21.0583C21.4068 20.9545 21.4067 20.8508 21.4066 20.744C21.4047 18.3876 21.3646 16.0321 21.3155 13.6763C21.382 13.6821 21.4484 13.6879 21.5169 13.694C22.0822 13.7411 22.6408 13.7691 23.2079 13.7631C23.2767 13.7627 23.3455 13.7623 23.4164 13.7619C23.5819 13.761 23.7475 13.7595 23.9131 13.758C23.8702 13.4537 23.809 13.2837 23.6022 13.0579C23.5505 13.0015 23.4989 12.945 23.4457 12.8868C23.0723 12.4956 22.6938 12.1098 22.3127 11.726C22.2175 11.6298 22.1222 11.5335 22.0269 11.4372C21.7699 11.1775 21.5126 10.918 21.2551 10.6586C21.0942 10.4964 20.9332 10.3341 20.7723 10.1718C20.2681 9.66339 19.7638 9.15515 19.2593 8.64715C18.6778 8.06169 18.0969 7.4757 17.5165 6.88925C17.0668 6.43499 16.6166 5.98121 16.1661 5.52778C15.8974 5.25731 15.6289 4.98664 15.3609 4.71548C15.1091 4.46078 14.8567 4.20666 14.6039 3.95298C14.5114 3.85991 14.419 3.76663 14.3269 3.67313C14.2009 3.54534 14.0742 3.41833 13.9473 3.29148C13.8767 3.22027 13.8061 3.14906 13.7333 3.0757C13.3743 2.76631 13.0415 2.61294 12.569 2.6033Z" fill="#F9D052"/>
</svg>
