<svg width="44" height="43" viewBox="0 0 44 43" fill="none" xmlns="http://www.w3.org/2000/svg">
<ellipse cx="21.5355" cy="21.747" rx="21.5052" ry="21.2529" fill="#F9D052"/>
<path d="M22.5773 11.7466C23.7174 11.7496 24.296 11.7556 24.7956 11.7696L24.9922 11.7766C25.2192 11.7846 25.4432 11.7946 25.7137 11.8066C26.792 11.8566 27.5277 12.0246 28.1732 12.2716C28.8421 12.5256 29.4055 12.8696 29.9689 13.4246C30.4842 13.9245 30.883 14.5292 31.1374 15.1966C31.3877 15.8336 31.5579 16.5596 31.6086 17.6246C31.6208 17.8906 31.6309 18.1116 31.639 18.3366L31.6451 18.5306C31.6603 19.0226 31.6664 19.5936 31.6684 20.7186L31.6694 21.4646V22.7746C31.6719 23.504 31.6641 24.2334 31.6461 24.9626L31.64 25.1566C31.6319 25.3816 31.6218 25.6026 31.6096 25.8686C31.5589 26.9336 31.3867 27.6586 31.1374 28.2966C30.8837 28.9644 30.4849 29.5692 29.9689 30.0686C29.4622 30.5769 28.8495 30.9703 28.1732 31.2216C27.5277 31.4686 26.792 31.6366 25.7137 31.6866C25.4733 31.6978 25.2328 31.7078 24.9922 31.7166L24.7956 31.7226C24.296 31.7366 23.7174 31.7436 22.5773 31.7456L21.8213 31.7466H20.4948C19.7553 31.7491 19.0158 31.7414 18.2765 31.7236L18.0799 31.7176C17.8393 31.7086 17.5988 31.6983 17.3583 31.6866C16.2801 31.6366 15.5444 31.4686 14.8978 31.2216C14.2216 30.971 13.609 30.5774 13.1031 30.0686C12.5874 29.5689 12.1883 28.9641 11.9337 28.2966C11.6834 27.6596 11.5131 26.9336 11.4624 25.8686C11.4512 25.6313 11.441 25.394 11.432 25.1566L11.427 24.9626C11.4083 24.2334 11.3999 23.504 11.4016 22.7746V20.7186C11.3988 19.9892 11.4063 19.2598 11.4239 18.5306L11.431 18.3366C11.4391 18.1116 11.4493 17.8906 11.4614 17.6246C11.5121 16.5596 11.6824 15.8346 11.9327 15.1966C12.1871 14.5285 12.587 13.9236 13.1041 13.4246C13.6099 12.9161 14.2221 12.5226 14.8978 12.2716C15.5444 12.0246 16.2791 11.8566 17.3583 11.8066C17.6279 11.7946 17.8529 11.7846 18.0799 11.7766L18.2765 11.7706C19.0154 11.7528 19.7546 11.7451 20.4938 11.7476L22.5773 11.7466ZM21.5355 16.7466C20.1917 16.7466 18.9029 17.2734 17.9527 18.211C17.0024 19.1487 16.4686 20.4205 16.4686 21.7466C16.4686 23.0727 17.0024 24.3444 17.9527 25.2821C18.9029 26.2198 20.1917 26.7466 21.5355 26.7466C22.8794 26.7466 24.1682 26.2198 25.1184 25.2821C26.0686 24.3444 26.6025 23.0727 26.6025 21.7466C26.6025 20.4205 26.0686 19.1487 25.1184 18.211C24.1682 17.2734 22.8794 16.7466 21.5355 16.7466ZM21.5355 18.7466C21.9348 18.7465 22.3301 18.824 22.699 18.9748C23.0679 19.1255 23.403 19.3464 23.6854 19.6249C23.9677 19.9034 24.1917 20.2341 24.3446 20.5981C24.4974 20.962 24.5761 21.3521 24.5762 21.7461C24.5763 22.14 24.4977 22.5302 24.345 22.8942C24.1923 23.2582 23.9684 23.5889 23.6861 23.8675C23.4039 24.1462 23.0687 24.3672 22.6999 24.518C22.3311 24.6689 21.9358 24.7465 21.5365 24.7466C20.7302 24.7466 19.957 24.4305 19.3868 23.8679C18.8167 23.3053 18.4964 22.5422 18.4964 21.7466C18.4964 20.9509 18.8167 20.1879 19.3868 19.6253C19.957 19.0627 20.7302 18.7466 21.5365 18.7466M26.8568 15.2466C26.5209 15.2466 26.1987 15.3783 25.9611 15.6127C25.7236 15.8471 25.5901 16.1651 25.5901 16.4966C25.5901 16.8281 25.7236 17.146 25.9611 17.3805C26.1987 17.6149 26.5209 17.7466 26.8568 17.7466C27.1928 17.7466 27.515 17.6149 27.7525 17.3805C27.9901 17.146 28.1236 16.8281 28.1236 16.4966C28.1236 16.1651 27.9901 15.8471 27.7525 15.6127C27.515 15.3783 27.1928 15.2466 26.8568 15.2466Z" fill="#1B1D1C"/>
</svg>
