<svg width="55" height="55" viewBox="0 0 55 55" fill="none" xmlns="http://www.w3.org/2000/svg">
<circle cx="27.4722" cy="27.2515" r="27.0269" fill="#1B1D1C"/>
<path d="M23.3658 17.4731H31.5795C34.7086 17.4731 37.251 20.0155 37.251 23.1446V31.3584C37.251 32.8625 36.6535 34.3051 35.5899 35.3687C34.5263 36.4323 33.0837 37.0298 31.5795 37.0298H23.3658C20.2367 37.0298 17.6943 34.4874 17.6943 31.3584V23.1446C17.6943 21.6404 18.2919 20.1979 19.3555 19.1343C20.4191 18.0707 21.8616 17.4731 23.3658 17.4731ZM23.1702 19.4288C22.2366 19.4288 21.3412 19.7997 20.681 20.4598C20.0209 21.12 19.65 22.0154 19.65 22.949V31.5539C19.65 33.4998 21.2243 35.0741 23.1702 35.0741H31.7751C32.7087 35.0741 33.6041 34.7032 34.2643 34.0431C34.9244 33.3829 35.2953 32.4875 35.2953 31.5539V22.949C35.2953 21.0031 33.721 19.4288 31.7751 19.4288H23.1702ZM32.6063 20.8956C32.9304 20.8956 33.2413 21.0243 33.4706 21.2536C33.6998 21.4828 33.8286 21.7937 33.8286 22.1178C33.8286 22.442 33.6998 22.7529 33.4706 22.9821C33.2413 23.2114 32.9304 23.3401 32.6063 23.3401C32.2821 23.3401 31.9712 23.2114 31.742 22.9821C31.5128 22.7529 31.384 22.442 31.384 22.1178C31.384 21.7937 31.5128 21.4828 31.742 21.2536C31.9712 21.0243 32.2821 20.8956 32.6063 20.8956ZM27.4727 22.3623C28.7693 22.3623 30.0129 22.8774 30.9298 23.7943C31.8467 24.7112 32.3618 25.9548 32.3618 27.2515C32.3618 28.5481 31.8467 29.7917 30.9298 30.7086C30.0129 31.6255 28.7693 32.1406 27.4727 32.1406C26.176 32.1406 24.9324 31.6255 24.0155 30.7086C23.0986 29.7917 22.5835 28.5481 22.5835 27.2515C22.5835 25.9548 23.0986 24.7112 24.0155 23.7943C24.9324 22.8774 26.176 22.3623 27.4727 22.3623ZM27.4727 24.318C26.6946 24.318 25.9485 24.627 25.3984 25.1772C24.8482 25.7273 24.5392 26.4735 24.5392 27.2515C24.5392 28.0295 24.8482 28.7756 25.3984 29.3258C25.9485 29.8759 26.6946 30.185 27.4727 30.185C28.2507 30.185 28.9968 29.8759 29.5469 29.3258C30.0971 28.7756 30.4062 28.0295 30.4062 27.2515C30.4062 26.4735 30.0971 25.7273 29.5469 25.1772C28.9968 24.627 28.2507 24.318 27.4727 24.318Z" fill="white"/>
</svg>
