<svg width="157" height="146" viewBox="0 0 157 146" fill="none" xmlns="http://www.w3.org/2000/svg">
<circle cx="2.11917" cy="2.11917" r="2.11917" transform="matrix(1 0 0 -1 54.6627 145.081)" fill="#F9D052"/>
<path d="M24.0475 26.6253C22.9002 23.7679 25.2764 20.7399 28.3247 21.1751L30.3532 21.4646C33.4016 21.8997 34.8357 25.4716 32.9347 27.8939L31.6697 29.5059C29.7687 31.9283 25.9583 31.3844 24.811 28.5269L24.0475 26.6253Z" fill="#F9D052"/>
<path d="M114.015 127.561C115.162 124.704 112.786 121.676 109.737 122.111L108.111 122.343C105.063 122.778 103.629 126.35 105.53 128.773L106.544 130.065C108.445 132.487 112.255 131.943 113.402 129.086L114.015 127.561Z" fill="#F9D052"/>
<path d="M6.55988 106.491C5.70819 104.369 7.47212 102.122 9.73497 102.445C11.9978 102.768 13.0624 105.419 11.6513 107.217C10.2401 109.015 7.41157 108.612 6.55988 106.491Z" fill="#F9D052"/>
<path d="M134.745 89.9813C133.089 85.8565 136.519 81.4857 140.919 82.1138C145.319 82.7419 147.389 87.8978 144.645 91.3945C141.901 94.8911 136.401 94.106 134.745 89.9813Z" fill="#F9D052"/>
<path d="M125.839 28.2329C123.832 33.3128 120.642 19.7242 115.562 17.7176C110.482 15.711 97.7875 16.569 99.7941 11.4891C101.801 6.40929 116.605 5.97775 121.685 7.98436C126.765 9.99097 127.845 23.1531 125.839 28.2329Z" fill="#F9D052"/>
<circle cx="78.6471" cy="76.1666" r="45.514" fill="#F9D052"/>
<circle cx="78.6472" cy="76.1667" r="30.9094" fill="white"/>
<path d="M87.4921 58.3136C87.8498 58.6012 88.2031 58.8945 88.5509 59.1939C88.703 59.3247 88.8552 59.4555 89.0119 59.5902C91.6062 62.0012 93.3612 65.5879 93.554 69.1258C93.6061 70.7787 93.4572 72.2729 92.9287 73.8501C92.8588 74.0668 92.7889 74.2834 92.7168 74.5066C90.9034 79.8371 87.7126 84.6544 84.5538 89.2677C84.4576 89.4082 84.3615 89.5487 84.2625 89.6934C83.0945 91.3924 81.8756 93.054 80.6399 94.7042C80.5083 94.8824 80.3767 95.0605 80.2411 95.244C80.1173 95.4077 79.9935 95.5713 79.8659 95.74C79.7558 95.8868 79.6458 96.0337 79.5324 96.185C79.4307 96.2891 79.329 96.3933 79.2242 96.5006C79.0358 96.5006 78.8474 96.5006 78.6532 96.5006C78.2546 96.074 77.8946 95.65 77.535 95.192C77.4259 95.0553 77.3169 94.9186 77.2045 94.7778C76.0943 93.3731 75.0506 91.9222 74.0145 90.4626C73.7062 90.0316 73.3935 89.6042 73.0791 89.1777C71.603 87.1711 70.2453 85.1113 68.9459 82.9864C68.822 82.7868 68.822 82.7868 68.6955 82.5832C65.9182 78.1034 62.9366 72.8422 63.9234 67.3875C64.5592 64.7549 65.7842 62.3352 67.6135 60.336C67.7259 60.2062 67.8383 60.0764 67.954 59.9427C72.9175 54.5462 81.6738 54.0848 87.4921 58.3136Z" fill="#F9D052"/>
<path d="M83.1515 63.0967C85.0214 64.2968 86.0884 65.9521 86.8854 67.9845C87.3975 70.5878 86.9067 72.9519 85.5054 75.1818C84.1502 76.8964 82.3829 78.1579 80.1759 78.4175C77.6677 78.5791 75.7066 78.3581 73.717 76.6889C72.6213 75.6719 71.8188 74.6553 71.2299 73.2784C71.1553 73.1135 71.0808 72.9486 71.0039 72.7787C70.3041 70.7333 70.4809 68.5369 71.4203 66.6165C72.2283 65.0541 73.1843 63.9652 74.6561 63C74.8057 62.8994 74.9554 62.7988 75.1096 62.6952C77.5281 61.3381 80.8353 61.7702 83.1515 63.0967Z" fill="white"/>
<path d="M80.9372 66.4265C81.314 66.5207 81.314 66.5207 81.6985 66.6169C81.5729 66.9309 81.4473 67.245 81.3178 67.5686C81.1294 67.3801 80.941 67.1917 80.7468 66.9975C80.8096 66.8091 80.8725 66.6207 80.9372 66.4265Z" fill="white"/>
</svg>
