<svg width="11" height="13" viewBox="0 0 11 13" fill="none" xmlns="http://www.w3.org/2000/svg">
<path d="M5.4353 6.36693C4.96097 6.36693 4.50607 6.2023 4.17067 5.90927C3.83527 5.61623 3.64684 5.21879 3.64684 4.80437C3.64684 4.38995 3.83527 3.99251 4.17067 3.69947C4.50607 3.40644 4.96097 3.24181 5.4353 3.24181C5.90963 3.24181 6.36453 3.40644 6.69994 3.69947C7.03534 3.99251 7.22376 4.38995 7.22376 4.80437C7.22376 5.00957 7.1775 5.21276 7.08763 5.40234C6.99775 5.59192 6.86601 5.76417 6.69994 5.90927C6.53386 6.05437 6.3367 6.16946 6.11972 6.24799C5.90273 6.32651 5.67017 6.36693 5.4353 6.36693ZM5.4353 0.429199C4.10718 0.429199 2.83346 0.890153 1.89433 1.71066C0.955207 2.53116 0.427612 3.644 0.427612 4.80437C0.427612 8.08575 5.4353 12.9297 5.4353 12.9297C5.4353 12.9297 10.443 8.08575 10.443 4.80437C10.443 3.644 9.9154 2.53116 8.97627 1.71066C8.03715 0.890153 6.76342 0.429199 5.4353 0.429199Z" fill="#F9D052"/>
</svg>
