<svg width="131" height="122" viewBox="0 0 131 122" fill="none" xmlns="http://www.w3.org/2000/svg">
<circle cx="1.7778" cy="1.7778" r="1.7778" transform="matrix(1 0 0 -1 45.3779 121.77)" fill="#F9D052"/>
<path d="M20.0144 23.1931C18.9096 20.4414 21.1978 17.5256 24.1332 17.9446C27.0687 18.3636 28.4498 21.8032 26.6192 24.1359C24.7886 26.4685 21.1193 25.9448 20.0144 23.1931Z" fill="#F9D052"/>
<path d="M94.9118 107.712C95.9884 105.03 93.7586 102.189 90.8982 102.597C88.0377 103.006 86.6919 106.357 88.4758 108.63C90.2596 110.903 93.8352 110.393 94.9118 107.712Z" fill="#F9D052"/>
<path d="M5.02414 89.3956C4.30964 87.6161 5.78944 85.7305 7.68777 86.0015C9.58611 86.2724 10.4792 88.4968 9.2954 90.0053C8.11156 91.5138 5.73864 91.1751 5.02414 89.3956Z" fill="#F9D052"/>
<path d="M112.561 75.5459C111.172 72.0856 114.049 68.4188 117.741 68.9457C121.432 69.4727 123.169 73.798 120.867 76.7314C118.565 79.6648 113.95 79.0062 112.561 75.5459Z" fill="#F9D052"/>
<path d="M105.088 23.7441C103.405 28.0057 100.729 16.606 96.467 14.9226C92.2055 13.2393 81.5558 13.959 83.2392 9.69745C84.9226 5.4359 97.3424 5.07387 101.604 6.75725C105.866 8.44063 106.772 19.4825 105.088 23.7441Z" fill="#F9D052"/>
<circle cx="65.4979" cy="63.9564" r="38.1825" fill="#F9D052"/>
<circle cx="65.4979" cy="63.9561" r="28.2088" fill="white"/>
<path d="M48.3733 48.2721C47.6798 48.3547 47.1661 48.9539 47.1874 49.6544L48.1271 80.5669C48.1471 81.2243 48.6299 81.7675 49.277 81.8637L63.3985 83.9499C63.7933 84.0086 64.192 83.8896 64.4889 83.6221C64.787 83.3556 64.9508 82.9724 64.9387 82.5727L63.8846 47.8982C63.873 47.517 63.7061 47.164 63.4191 46.9154C63.1308 46.6665 62.7579 46.5518 62.3805 46.597L48.3733 48.2721ZM60.7859 67.1944C60.2078 67.212 59.7136 66.398 59.6826 65.3786C59.6515 64.3574 60.0955 63.5174 60.6736 63.4998C61.2525 63.4822 61.7466 64.2937 61.7777 65.3149C61.8086 66.3343 61.3647 67.1769 60.7859 67.1944Z" fill="#F9D052"/>
<path d="M83.7282 64.7249C84.2542 64.3097 84.231 63.5048 83.6819 63.1206L75.1906 57.1799C74.5164 56.7082 73.5928 57.2072 73.6178 58.0296L73.656 59.2854C73.6728 59.8375 73.2389 60.2986 72.6868 60.3154L66.157 60.5139C65.605 60.5306 65.1711 60.9918 65.1878 61.5438L65.3651 67.3743C65.3819 67.9263 65.843 68.3602 66.395 68.3435L72.9249 68.145C73.4769 68.1282 73.938 68.5621 73.9548 69.1141L73.9931 70.3763C74.0181 71.1973 74.9675 71.6398 75.6122 71.1309L83.7282 64.7249Z" fill="#F9D052"/>
<path d="M72.6941 59.1087L72.3728 48.5403C72.3644 48.2632 72.2451 47.9951 72.0435 47.8051C71.8438 47.6152 71.5701 47.5105 71.2948 47.5189L64.7676 47.7173L64.8316 49.8223L70.3104 49.6557L70.5997 59.1724L72.6941 59.1087Z" fill="#F9D052"/>
<path d="M65.7665 80.5932L65.8305 82.6982L72.3577 82.4998C72.633 82.4914 72.8998 82.3713 73.0876 82.1684C73.2774 81.9671 73.3801 81.6919 73.3717 81.4149L73.0029 69.2837L70.9086 69.3474L71.2454 80.4266L65.7665 80.5932L65.7665 80.5932Z" fill="#F9D052"/>
</svg>
