<svg width="18" height="18" viewBox="0 0 18 18" fill="none" xmlns="http://www.w3.org/2000/svg">
<path d="M4.27561 12.113V6.50228C4.27561 5.98797 4.45889 5.54784 4.82545 5.1819C5.19202 4.81596 5.63214 4.63268 6.14583 4.63205H13.767L11.3591 2.22414L12.6916 0.891602L17.3672 5.56717L12.6916 10.2427L11.3591 8.93357L13.767 6.50228H6.14583V12.113H4.27561ZM2.40538 17.7236C1.89107 17.7236 1.45094 17.5407 1.085 17.1747C0.719062 16.8088 0.53578 16.3683 0.535156 15.8534V1.82671H2.40538V15.8534H13.6267V12.113H15.497V15.8534C15.497 16.3677 15.314 16.8082 14.9481 17.1747C14.5821 17.5413 14.1417 17.7243 13.6267 17.7236H2.40538Z" fill="white"/>
</svg>
