<svg width="32" height="32" viewBox="0 0 32 32" fill="none" xmlns="http://www.w3.org/2000/svg">
<circle cx="15.4072" cy="15.5662" r="14.723" fill="#F9D052"/>
<circle cx="16.0227" cy="15.5662" r="14.75" stroke="#272727" stroke-width="1.5"/>
<path fill-rule="evenodd" clip-rule="evenodd" d="M15.7207 6.49683C18.505 6.49683 21.6275 8.45942 21.9803 11.6128V13.2562C22.101 13.8475 22.3812 14.4007 22.7848 14.8505C22.8093 14.8786 22.8319 14.9068 22.8483 14.9394C23.2174 15.4954 23.4296 16.1366 23.4613 16.7986L23.4369 16.9655C23.465 17.8724 23.1639 18.7612 22.5825 19.4632C21.8461 20.2604 20.8367 20.7601 19.752 20.8626C17.0775 21.1528 14.3776 21.1528 11.7067 20.8626C10.6365 20.7528 9.64522 20.2531 8.9224 19.4632C8.3338 18.7721 8.02273 17.8869 8.04359 16.9836V16.8703C8.08984 16.1901 8.31657 15.5307 8.70564 14.9639L8.77004 14.8823C9.17362 14.4288 9.45023 13.8801 9.57448 13.2879V11.6445L9.6162 11.552C9.75496 11.3181 10.0171 11.1838 10.2928 11.2119C10.6011 11.2473 10.8532 11.4813 10.9022 11.786V13.4303V13.5183C10.7326 14.3436 10.3499 15.109 9.79033 15.7366C9.57448 16.0794 9.45386 16.4694 9.43572 16.8703V17.0471C9.41849 17.6103 9.60622 18.1626 9.96718 18.6025C10.4669 19.1158 11.1362 19.4314 11.8518 19.4949C14.4383 19.7751 17.0503 19.7751 19.6387 19.4949C20.376 19.4278 21.0607 19.0986 21.5622 18.5635C21.906 18.1345 22.0837 17.5994 22.0692 17.0544V16.8703C22.0511 16.4658 21.935 16.0767 21.7219 15.7293C21.1414 15.1054 20.7333 14.3399 20.5492 13.511C20.5456 13.4829 20.5456 13.4511 20.5492 13.423V11.7715C20.3152 9.36272 17.8928 7.8681 15.7842 7.8681C14.8882 7.8681 14.0057 8.09483 13.2267 8.53016L13.1305 8.58004C12.9328 8.65803 12.7097 8.64352 12.522 8.53741C12.3052 8.40954 12.171 8.17646 12.1783 7.92796C12.1846 7.67674 12.327 7.45001 12.5501 7.33664C13.5169 6.79067 14.6079 6.50408 15.7207 6.49683ZM17.2406 22.4317C17.4918 22.2049 17.8781 22.1913 18.1475 22.4144C18.4413 22.6548 18.484 23.091 18.2391 23.3812C17.6369 24.1639 16.7064 24.6246 15.7133 24.6355L15.5147 24.6283C14.6005 24.5611 13.7543 24.1113 13.1948 23.3812L13.134 23.2996C12.9608 23.013 13.017 22.6339 13.2864 22.4144C13.5802 22.1696 14.0201 22.2122 14.264 22.506C14.371 22.6484 14.498 22.7718 14.6431 22.8779C15.0258 23.1618 15.5074 23.2824 15.979 23.2116C16.4543 23.1409 16.8787 22.8888 17.1635 22.506H17.1698L17.2406 22.4317Z" fill="#1B1D1C"/>
<path d="M21.9803 11.6128H22.2303V11.5989L22.2288 11.585L21.9803 11.6128ZM21.9803 13.2562H21.7303V13.2814L21.7354 13.3061L21.9803 13.2562ZM22.7848 14.8505L22.9733 14.6863L22.9709 14.6836L22.7848 14.8505ZM22.8483 14.9394L22.6247 15.0512L22.6315 15.0649L22.64 15.0777L22.8483 14.9394ZM23.4613 16.7986L23.7087 16.8349L23.7122 16.8109L23.7111 16.7866L23.4613 16.7986ZM23.4369 16.9655L23.1895 16.9292L23.1863 16.9511L23.187 16.9732L23.4369 16.9655ZM22.5825 19.4632L22.7664 19.6331L22.7751 19.6226L22.5825 19.4632ZM19.752 20.8626L19.7285 20.6136L19.725 20.614L19.752 20.8626ZM11.7067 20.8626L11.7337 20.614L11.7322 20.6139L11.7067 20.8626ZM8.9224 19.4632L8.73195 19.6254L8.73796 19.6319L8.9224 19.4632ZM8.04359 16.9836L8.29359 16.9894V16.9836H8.04359ZM8.04359 16.8703L7.79416 16.8533L7.79359 16.8618V16.8703H8.04359ZM8.70564 14.9639L8.50937 14.8091L8.50423 14.8156L8.49953 14.8224L8.70564 14.9639ZM8.77004 14.8823L8.58329 14.7161L8.57835 14.7216L8.57376 14.7274L8.77004 14.8823ZM9.57448 13.2879L9.81915 13.3392L9.82448 13.3138V13.2879H9.57448ZM9.57448 11.6445L9.34658 11.5418L9.32448 11.5908V11.6445H9.57448ZM9.6162 11.552L9.40117 11.4245L9.39404 11.4365L9.3883 11.4493L9.6162 11.552ZM10.2928 11.2119L10.3213 10.9636L10.3181 10.9632L10.2928 11.2119ZM10.9022 11.786H11.1522V11.7661L11.1491 11.7464L10.9022 11.786ZM10.9022 13.5183L11.1471 13.5686L11.1522 13.5437V13.5183H10.9022ZM9.79033 15.7366L9.60373 15.5702L9.58987 15.5858L9.57877 15.6034L9.79033 15.7366ZM9.43572 16.8703L9.18572 16.8589V16.8703H9.43572ZM9.43572 17.0471L9.68572 17.0548V17.0471H9.43572ZM9.96718 18.6025L9.77392 18.7611L9.78065 18.7693L9.78805 18.7769L9.96718 18.6025ZM11.8518 19.4949L11.8787 19.2463L11.8739 19.2459L11.8518 19.4949ZM19.6387 19.4949L19.616 19.2459L19.6117 19.2464L19.6387 19.4949ZM21.5622 18.5635L21.7446 18.7345L21.7513 18.7274L21.7573 18.7198L21.5622 18.5635ZM22.0692 17.0544H21.8191L21.8193 17.061L22.0692 17.0544ZM22.0692 16.8703H22.3195L22.319 16.8591L22.0692 16.8703ZM21.7219 15.7293L21.9349 15.5986L21.9219 15.5773L21.9049 15.5591L21.7219 15.7293ZM20.5492 13.511L20.3013 13.543L20.3027 13.5542L20.3052 13.5652L20.5492 13.511ZM20.5492 13.423L20.7972 13.455L20.7992 13.4391V13.423H20.5492ZM20.5492 11.7715H20.7992V11.7594L20.798 11.7473L20.5492 11.7715ZM13.2267 8.53016L13.3419 8.75217L13.3486 8.7484L13.2267 8.53016ZM13.1305 8.58004L13.2223 8.8126L13.2343 8.80787L13.2457 8.80195L13.1305 8.58004ZM12.522 8.53741L12.3949 8.75277L12.399 8.75505L12.522 8.53741ZM12.1783 7.92796L12.4282 7.93525L12.4282 7.93427L12.1783 7.92796ZM12.5501 7.33664L12.6635 7.55973L12.673 7.55433L12.5501 7.33664ZM17.2406 22.4317L17.0731 22.2461L17.066 22.2525L17.0594 22.2594L17.2406 22.4317ZM18.1475 22.4144L17.988 22.607L17.9892 22.608L18.1475 22.4144ZM18.2391 23.3812L18.0478 23.2199L18.0409 23.2288L18.2391 23.3812ZM15.7133 24.6355L15.7042 24.8856L15.716 24.8855L15.7133 24.6355ZM15.5147 24.6283L15.4964 24.8778L15.5055 24.8781L15.5147 24.6283ZM13.1948 23.3812L12.9942 23.5305L12.9963 23.5333L13.1948 23.3812ZM13.134 23.2996L12.92 23.4289L12.9263 23.4392L12.9335 23.4489L13.134 23.2996ZM13.2864 22.4144L13.4443 22.6083L13.4464 22.6065L13.2864 22.4144ZM14.264 22.506L14.4641 22.3557L14.4564 22.3464L14.264 22.506ZM14.6431 22.8779L14.7921 22.6771L14.7907 22.6761L14.6431 22.8779ZM15.979 23.2116L15.9422 22.9644L15.9419 22.9644L15.979 23.2116ZM17.1635 22.506V22.256H17.0379L16.9629 22.3568L17.1635 22.506ZM17.1698 22.506V22.756H17.2771L17.351 22.6784L17.1698 22.506ZM15.7207 6.74683C18.4166 6.74683 21.3972 8.64901 21.7319 11.6406L22.2288 11.585C21.8579 8.26983 18.5933 6.24683 15.7207 6.24683V6.74683ZM21.7303 11.6128V13.2562H22.2303V11.6128H21.7303ZM21.7354 13.3061C21.865 13.9415 22.1658 14.535 22.5987 15.0175L22.9709 14.6836C22.5966 14.2664 22.3369 13.7535 22.2253 13.2062L21.7354 13.3061ZM22.5963 15.0147C22.6069 15.0269 22.6135 15.035 22.6183 15.0415C22.6228 15.0477 22.6244 15.0506 22.6247 15.0512L23.0719 14.8276C23.0406 14.765 23.0001 14.7171 22.9733 14.6863L22.5963 15.0147ZM22.64 15.0777C22.9845 15.5966 23.1821 16.1942 23.2116 16.8106L23.7111 16.7866C23.6771 16.0789 23.4503 15.3941 23.0565 14.8011L22.64 15.0777ZM23.214 16.7623L23.1895 16.9292L23.6842 17.0018L23.7087 16.8349L23.214 16.7623ZM23.187 16.9732C23.2132 17.8199 22.9321 18.6491 22.39 19.3037L22.7751 19.6226C23.3956 18.8733 23.7167 17.925 23.6867 16.9577L23.187 16.9732ZM22.3989 19.2935C21.7043 20.0454 20.752 20.517 19.7285 20.6137L19.7755 21.1114C20.9214 21.0032 21.9879 20.4753 22.7662 19.6328L22.3989 19.2935ZM19.725 20.614C17.0684 20.9023 14.3866 20.9023 11.7337 20.614L11.6797 21.1111C14.3685 21.4033 17.0865 21.4033 19.779 21.1111L19.725 20.614ZM11.7322 20.6139C10.723 20.5104 9.78829 20.0391 9.10684 19.2944L8.73796 19.6319C9.50215 20.4671 10.55 20.9953 11.6812 21.1112L11.7322 20.6139ZM9.11272 19.3011C8.56423 18.6571 8.27407 17.8318 8.29352 16.9894L7.79365 16.9779C7.77139 17.9421 8.10337 18.8871 8.73208 19.6253L9.11272 19.3011ZM8.29359 16.9836V16.8703H7.79359V16.9836H8.29359ZM8.29301 16.8872C8.33626 16.2512 8.54825 15.635 8.91176 15.1054L8.49953 14.8224C8.0849 15.4265 7.84342 16.1289 7.79416 16.8533L8.29301 16.8872ZM8.90192 15.1187L8.96631 15.0371L8.57376 14.7274L8.50937 14.8091L8.90192 15.1187ZM8.95679 15.0485C9.38933 14.5625 9.68594 13.9742 9.81915 13.3392L9.32981 13.2366C9.21453 13.786 8.95791 14.2951 8.58329 14.7161L8.95679 15.0485ZM9.82448 13.2879V11.6445H9.32448V13.2879H9.82448ZM9.80238 11.7473L9.8441 11.6548L9.3883 11.4493L9.34658 11.5418L9.80238 11.7473ZM9.83123 11.6796C9.9205 11.529 10.089 11.4425 10.2674 11.4607L10.3181 10.9632C9.94516 10.9252 9.58942 11.1071 9.40117 11.4245L9.83123 11.6796ZM10.2643 11.4603C10.4653 11.4834 10.6248 11.6355 10.6554 11.8257L11.1491 11.7464C11.0817 11.3271 10.737 11.0113 10.3213 10.9636L10.2643 11.4603ZM10.6522 11.786V13.4303H11.1522V11.786H10.6522ZM10.6522 13.4303V13.5183H11.1522V13.4303H10.6522ZM10.6573 13.4679C10.4965 14.2504 10.1338 14.9758 9.60373 15.5702L9.97693 15.903C10.5661 15.2422 10.9687 14.4367 11.1471 13.5686L10.6573 13.4679ZM9.57877 15.6034C9.33963 15.9832 9.20605 16.4153 9.18598 16.859L9.68546 16.8816C9.70167 16.5235 9.80933 16.1756 10.0019 15.8698L9.57877 15.6034ZM9.18572 16.8703V17.0471H9.68572V16.8703H9.18572ZM9.18584 17.0395C9.16675 17.6633 9.37473 18.2746 9.77392 18.7611L10.1604 18.4439C9.83772 18.0506 9.67023 17.5573 9.6856 17.0548L9.18584 17.0395ZM9.78805 18.7769C10.3299 19.3335 11.0552 19.6752 11.8297 19.7439L11.8739 19.2459C11.2172 19.1876 10.6038 18.8981 10.1463 18.4281L9.78805 18.7769ZM11.8248 19.7435C14.4293 20.0256 17.0593 20.0256 19.6656 19.7435L19.6117 19.2464C17.0413 19.5247 14.4474 19.5247 11.8787 19.2464L11.8248 19.7435ZM19.6613 19.7439C20.4582 19.6713 21.2002 19.3153 21.7446 18.7345L21.3798 18.3925C20.9212 18.8819 20.2938 19.1842 19.616 19.2459L19.6613 19.7439ZM21.7573 18.7198C22.1383 18.2444 22.3352 17.6514 22.3191 17.0477L21.8193 17.061C21.8323 17.5474 21.6736 18.0247 21.3671 18.4072L21.7573 18.7198ZM22.3192 17.0544V16.8703H21.8192V17.0544H22.3192ZM22.319 16.8591C22.299 16.4135 22.1708 15.9831 21.9349 15.5986L21.5088 15.8601C21.6991 16.1703 21.8032 16.5181 21.8195 16.8815L22.319 16.8591ZM21.9049 15.5591C21.354 14.9668 20.9675 14.2412 20.7933 13.4568L20.3052 13.5652C20.4991 14.4387 20.9289 15.2439 21.5388 15.8996L21.9049 15.5591ZM20.7972 13.479C20.7963 13.4721 20.7963 13.4619 20.7972 13.455L20.3013 13.391C20.2949 13.4404 20.2949 13.4936 20.3013 13.543L20.7972 13.479ZM20.7992 13.423V11.7715H20.2992V13.423H20.7992ZM20.798 11.7473C20.5478 9.17104 17.9777 7.6181 15.7842 7.6181V8.1181C17.808 8.1181 20.0827 9.55439 20.3004 11.7957L20.798 11.7473ZM15.7842 7.6181C14.8461 7.6181 13.9216 7.85544 13.1047 8.31192L13.3486 8.7484C14.0898 8.33422 14.9302 8.1181 15.7842 8.1181V7.6181ZM13.1115 8.30825L13.0154 8.35813L13.2457 8.80195L13.3418 8.75206L13.1115 8.30825ZM13.0388 8.34748C12.911 8.3979 12.7668 8.38863 12.645 8.31977L12.399 8.75505C12.6526 8.89842 12.9547 8.91817 13.2223 8.8126L13.0388 8.34748ZM12.649 8.32209C12.5068 8.23817 12.4237 8.08822 12.4282 7.93525L11.9284 7.92066C11.9183 8.26469 12.1037 8.5809 12.395 8.75273L12.649 8.32209ZM12.4282 7.93427C12.4322 7.77417 12.5227 7.63097 12.6634 7.55952L12.4369 7.11376C12.1313 7.26905 11.937 7.5793 11.9283 7.92164L12.4282 7.93427ZM12.673 7.55433C13.6022 7.02959 14.6514 6.7538 15.7224 6.74682L15.7191 6.24683C14.5644 6.25436 13.4316 6.55175 12.4272 7.11895L12.673 7.55433ZM17.4081 22.6173C17.568 22.4729 17.8151 22.4638 17.988 22.607L18.307 22.2219C17.9411 21.9189 17.4156 21.937 17.0731 22.2461L17.4081 22.6173ZM17.9892 22.608C18.1762 22.7609 18.2019 23.0376 18.048 23.22L18.4302 23.5424C18.766 23.1444 18.7065 22.5487 18.3058 22.2209L17.9892 22.608ZM18.0409 23.2288C17.486 23.95 16.6279 24.3755 15.7106 24.3855L15.716 24.8855C16.7849 24.8738 17.7878 24.3778 18.4372 23.5337L18.0409 23.2288ZM15.7224 24.3857L15.5238 24.3784L15.5055 24.8781L15.7042 24.8853L15.7224 24.3857ZM15.533 24.3789C14.6888 24.317 13.9087 23.9017 13.3932 23.2291L12.9963 23.5333C13.6 24.3209 14.5121 24.8053 15.4964 24.8776L15.533 24.3789ZM13.3953 23.2319L13.3345 23.1503L12.9335 23.4489L12.9942 23.5305L13.3953 23.2319ZM13.3479 23.1703C13.2373 22.9872 13.2743 22.7468 13.4443 22.6083L13.1284 22.2206C12.7597 22.5211 12.6842 23.0388 12.92 23.4289L13.3479 23.1703ZM13.4464 22.6065C13.633 22.451 13.9152 22.4772 14.0717 22.6657L14.4564 22.3464C14.125 21.9472 13.5274 21.8882 13.1263 22.2224L13.4464 22.6065ZM14.0642 22.6562C14.1868 22.8195 14.3318 22.9599 14.4956 23.0797L14.7907 22.6761C14.6643 22.5836 14.5552 22.4774 14.4639 22.3558L14.0642 22.6562ZM14.4942 23.0787C14.9302 23.4021 15.4787 23.5395 16.0161 23.4589L15.9419 22.9644C15.5362 23.0253 15.1215 22.9214 14.792 22.6771L14.4942 23.0787ZM16.0158 23.4589C16.5556 23.3786 17.0393 23.0918 17.364 22.6553L16.9629 22.3568C16.7181 22.6858 16.3529 22.9032 15.9422 22.9644L16.0158 23.4589ZM17.1635 22.756H17.1698V22.256H17.1635V22.756ZM17.351 22.6784L17.4217 22.604L17.0594 22.2594L16.9887 22.3337L17.351 22.6784Z" fill="#1B1D1C"/>
</svg>
