<svg width="44" height="43" viewBox="0 0 44 43" fill="none" xmlns="http://www.w3.org/2000/svg">
<ellipse cx="21.8455" cy="21.747" rx="21.5052" ry="21.2529" fill="#F9D052"/>
<path d="M11.5183 30.7833H32.1726V32.0742H11.5183V30.7833ZM11.5183 11.4199V19.1653C11.5248 20.1102 12.036 20.9338 12.7976 21.3792L12.8092 29.4924H24.4273V23.038H28.3V29.4924H30.8817V21.3856C31.655 20.9338 32.1662 20.1102 32.1726 19.1666V11.4199H11.5183ZM16.6819 14.0017H19.2637V19.1653C19.2637 19.5076 19.1277 19.836 18.8856 20.0781C18.6435 20.3202 18.3152 20.4562 17.9728 20.4562C17.6304 20.4562 17.3021 20.3202 17.06 20.0781C16.8179 19.836 16.6819 19.5076 16.6819 19.1653V14.0017ZM14.1001 20.4562C13.7578 20.4562 13.4294 20.3202 13.1873 20.0781C12.9452 19.836 12.8092 19.5076 12.8092 19.1653V14.0017H15.391V19.1653C15.391 19.5076 15.255 19.836 15.0129 20.0781C14.7708 20.3202 14.4425 20.4562 14.1001 20.4562ZM21.8455 26.9106H15.391V23.038H21.8455V26.9106ZM23.1364 19.1653C23.1364 19.5076 23.0004 19.836 22.7583 20.0781C22.5162 20.3202 22.1879 20.4562 21.8455 20.4562C21.5031 20.4562 21.1748 20.3202 20.9327 20.0781C20.6906 19.836 20.5546 19.5076 20.5546 19.1653V14.0017H23.1364V19.1653ZM27.0091 19.1653C27.0091 19.5076 26.8731 19.836 26.631 20.0781C26.3889 20.3202 26.0605 20.4562 25.7182 20.4562C25.3758 20.4562 25.0475 20.3202 24.8054 20.0781C24.5633 19.836 24.4273 19.5076 24.4273 19.1653V14.0017H27.0091V19.1653ZM30.8817 19.1653C30.8817 19.5076 30.7457 19.836 30.5037 20.0781C30.2616 20.3202 29.9332 20.4562 29.5909 20.4562C29.2485 20.4562 28.9201 20.3202 28.6781 20.0781C28.436 19.836 28.3 19.5076 28.3 19.1653V14.0017H30.8817V19.1653Z" fill="#1B1D1C"/>
</svg>
