<svg width="17" height="21" viewBox="0 0 17 21" fill="none" xmlns="http://www.w3.org/2000/svg">
<ellipse cx="8.35887" cy="6.11717" rx="4.37986" ry="4.37986" stroke="#616161" stroke-width="1.5" stroke-linecap="round" stroke-linejoin="round"/>
<path fill-rule="evenodd" clip-rule="evenodd" d="M1.41164 16.5884C1.41046 16.2805 1.47932 15.9764 1.61301 15.699C2.03254 14.86 3.2156 14.4153 4.1973 14.2139C4.90529 14.0628 5.62307 13.9619 6.34527 13.9118C7.68239 13.7944 9.02723 13.7944 10.3643 13.9118C11.0865 13.9624 11.8042 14.0634 12.5123 14.2139C13.494 14.4153 14.6771 14.818 15.0966 15.699C15.3655 16.2644 15.3655 16.9208 15.0966 17.4862C14.6771 18.3672 13.494 18.7699 12.5123 18.9629C11.8052 19.1203 11.0871 19.224 10.3643 19.2734C9.27604 19.3656 8.18266 19.3825 7.09203 19.3237C6.84032 19.3237 6.59699 19.3237 6.34527 19.2734C5.6252 19.2247 4.90991 19.1209 4.20569 18.9629C3.2156 18.7699 2.04093 18.3672 1.61301 17.4862C1.48 17.2056 1.41121 16.8989 1.41164 16.5884Z" stroke="#616161" stroke-width="1.5" stroke-linecap="round" stroke-linejoin="round"/>
</svg>
