<svg width="147" height="136" viewBox="0 0 147 136" fill="none" xmlns="http://www.w3.org/2000/svg">
<circle cx="1.9988" cy="1.9988" r="1.9988" transform="matrix(1 0 0 -1 50.636 135.918)" fill="#F9D052"/>
<path d="M21.9063 24.5562C20.7589 21.6987 23.1352 18.6708 26.1835 19.1059L27.3176 19.2678C30.3659 19.7029 31.8001 23.2747 29.8991 25.6971L29.1918 26.5984C27.2909 29.0207 23.4805 28.4768 22.3331 25.6194L21.9063 24.5562Z" fill="#F9D052"/>
<path d="M106.47 119.76C107.617 116.902 105.241 113.874 102.193 114.309L101.438 114.417C98.3898 114.852 96.9556 118.424 98.8566 120.846L99.3273 121.446C101.228 123.868 105.039 123.325 106.186 120.467L106.47 119.76Z" fill="#F9D052"/>
<path d="M5.26549 99.5199C4.46217 97.5192 6.12592 95.3992 8.26023 95.7038C10.3945 96.0085 11.3987 98.5094 10.0677 100.205C8.7367 101.901 6.06881 101.521 5.26549 99.5199Z" fill="#F9D052"/>
<path d="M126.169 83.9486C124.607 80.0582 127.843 75.9357 131.993 76.5281C136.143 77.1205 138.096 81.9836 135.508 85.2816C132.919 88.5796 127.732 87.8391 126.169 83.9486Z" fill="#F9D052"/>
<path d="M117.769 25.7075C115.877 30.4988 112.867 17.6821 108.076 15.7895C103.285 13.8968 91.3112 14.706 93.2039 9.91475C95.0965 5.12345 109.06 4.71642 113.851 6.60906C118.643 8.50169 119.662 20.9162 117.769 25.7075Z" fill="#F9D052"/>
<circle cx="73.2579" cy="70.9183" r="42.9288" fill="#F9D052"/>
<circle cx="73.2579" cy="70.9183" r="22.3588" fill="white"/>
<path fill-rule="evenodd" clip-rule="evenodd" d="M59.9553 72.762C58.9148 71.753 58.9148 70.0835 59.9553 69.0745C60.9515 68.1085 62.5348 68.1085 63.531 69.0745L66.337 71.7954C67.8885 73.3 70.3546 73.3 71.9061 71.7954L82.0905 61.9197C83.0866 60.9537 84.67 60.9537 85.6662 61.9197C86.7067 62.9287 86.7067 64.5982 85.6662 65.6072L71.9061 78.9502C70.3546 80.4548 67.8885 80.4548 66.337 78.9502L59.9553 72.762Z" fill="#F9D052"/>
</svg>
