<svg width="19" height="19" viewBox="0 0 19 19" fill="none" xmlns="http://www.w3.org/2000/svg">
<path d="M0.9244 5.39405C1.70684 8.44684 3.29539 11.2332 5.52382 13.4617C7.75224 15.6901 10.5386 17.2786 13.5914 18.0611C15.9403 18.659 17.9359 16.6392 17.9359 14.2147V13.1176C17.9359 12.512 17.4433 12.026 16.841 11.9656C15.8421 11.8672 14.8615 11.6313 13.9271 11.2646L12.2596 12.9322C9.54434 11.6306 7.35484 9.44113 6.05331 6.72592L7.72089 5.05834C7.35384 4.12399 7.11756 3.14344 7.01875 2.14446C6.9595 1.54106 6.47349 1.04956 5.8679 1.04956H4.77081C2.34623 1.04956 0.326485 3.04517 0.9244 5.39405Z" stroke="#616161" stroke-width="1.3" stroke-linecap="round" stroke-linejoin="round"/>
</svg>
