<svg width="103" height="95" viewBox="0 0 103 95" fill="none" xmlns="http://www.w3.org/2000/svg">
<circle cx="1.39152" cy="1.39152" r="1.39152" transform="matrix(1 0 0 -1 35.751 94.8328)" fill="#F9D052"/>
<path d="M15.8979 17.6756C15.0331 15.5219 16.8241 13.2396 19.1218 13.5676C21.4194 13.8955 22.5004 16.5878 21.0675 18.4136C19.6347 20.2394 16.7627 19.8294 15.8979 17.6756Z" fill="#F9D052"/>
<path d="M74.5223 83.8298C75.365 81.731 73.6197 79.507 71.3808 79.8266C69.1419 80.1462 68.0885 82.7697 69.4847 84.5488C70.881 86.328 73.6796 85.9285 74.5223 83.8298Z" fill="#F9D052"/>
<path d="M4.16522 69.4927C3.60597 68.0999 4.76423 66.624 6.25009 66.8361C7.73595 67.0482 8.43501 68.7892 7.5084 69.9699C6.58179 71.1507 4.72447 70.8856 4.16522 69.4927Z" fill="#F9D052"/>
<path d="M88.3352 58.6527C87.2477 55.9443 89.5 53.0742 92.3893 53.4867C95.2786 53.8991 96.638 57.2846 94.8362 59.5807C93.0343 61.8767 89.4227 61.3611 88.3352 58.6527Z" fill="#F9D052"/>
<path d="M82.487 18.1062C81.1694 21.4418 79.0745 12.5191 75.7389 11.2015C72.4033 9.88388 64.0676 10.4472 65.3853 7.11164C66.7029 3.77606 76.4241 3.49269 79.7596 4.8103C83.0952 6.12791 83.8046 14.7706 82.487 18.1062Z" fill="#F9D052"/>
<circle cx="51.4992" cy="49.5815" r="21.2624" fill="white"/>
<path d="M55.3119 21.1072L60.58 31.7819C61.4937 33.6331 63.2598 34.9162 65.3027 35.213L77.0828 36.9248C80.3616 37.4012 81.6709 41.4309 79.2984 43.7439L70.774 52.0529C69.2957 53.4938 68.6213 55.5699 68.97 57.6043L70.9825 69.3369C71.5424 72.6027 68.1145 75.093 65.1821 73.5513L54.6455 68.012C52.8182 67.0512 50.6355 67.0512 48.8082 68.012L38.2718 73.5513C35.3389 75.093 31.9111 72.6027 32.4712 69.3369L34.4835 57.6043C34.8325 55.5699 34.1579 53.4938 32.6796 52.0529L24.1555 43.7439C21.7827 41.4309 23.0921 37.4012 26.3711 36.9248L38.1511 35.213C40.1941 34.9162 41.9601 33.6331 42.8737 31.7819L48.1419 21.1072C49.6085 18.1361 53.8452 18.1361 55.3119 21.1072Z" fill="#FBCA34"/>
<path d="M70.7741 52.0524C69.2958 53.4937 68.6214 55.5698 68.9701 57.6042L70.9826 69.3367C71.5426 72.6025 68.1146 75.0932 65.1818 73.5511L54.6459 68.0119C52.8187 67.0514 50.6353 67.0514 48.808 68.0119L38.2721 73.5511C35.3391 75.0932 31.9112 72.6025 32.4713 69.3367L33.2454 64.8246C33.2454 64.8246 66.3044 65.1034 65.3028 35.2129L77.083 36.9247C80.3617 37.4011 81.671 41.4308 79.2985 43.7438L70.7741 52.0524Z" fill="#E7B82A"/>
<path d="M49.7342 27.6364C48.541 30.0046 47.4142 31.8441 46.74 31.5044C46.0657 31.1647 46.4864 28.9695 47.6795 26.6014C48.8726 24.2332 50.3865 22.589 51.0608 22.9287C51.7349 23.2684 50.9273 25.2686 49.7342 27.6364Z" fill="white"/>
<path d="M46.041 34.3703C45.6059 35.2337 45.1539 35.8836 44.7337 35.6718C44.3135 35.4601 44.3255 34.5885 44.7606 33.7251C45.1955 32.8616 45.8888 32.3334 46.309 32.5451C46.7292 32.7569 46.4759 33.5069 46.041 34.3703Z" fill="white"/>
<path d="M51.7267 66.625C52.8358 66.625 53.9443 66.8906 54.9554 67.4222L65.4919 72.9615C66.6395 73.565 67.9514 73.4701 69.0004 72.7081C70.0494 71.9458 70.5452 70.7276 70.3259 69.4496L68.3135 57.7171C67.9272 55.4657 68.6733 53.1699 70.3088 51.5758L78.8331 43.2666C79.7618 42.3615 80.0769 41.0847 79.6762 39.8515C79.2755 38.6183 78.27 37.7705 76.9866 37.584L65.2065 35.8722C62.946 35.544 60.9932 34.125 59.9823 32.0768L54.7143 21.4022C54.1404 20.2394 53.0233 19.5451 51.7267 19.5451C50.4301 19.5451 49.313 20.2394 48.7391 21.4022L43.4709 32.0768C42.4601 34.125 40.5072 35.544 38.2468 35.8722L26.4667 37.584C25.1834 37.7705 24.1779 38.6183 23.7772 39.8515C23.3765 41.0847 23.6917 42.3615 24.6202 43.2666L33.1444 51.5758C34.78 53.1699 35.526 55.4657 35.1399 57.7171L33.1276 69.4496C32.9084 70.7276 33.4039 71.9458 34.453 72.7081C35.5021 73.4701 36.8137 73.565 37.9615 72.9615L48.498 67.4222C49.5087 66.8909 50.6179 66.625 51.7267 66.625ZM36.4068 74.6815C35.4438 74.6815 34.4873 74.3801 33.6698 73.786C32.2231 72.7347 31.5121 70.9868 31.8144 69.2241L33.8266 57.4918C34.1386 55.6728 33.5359 53.8179 32.2144 52.5299L23.6902 44.2209C22.4097 42.9725 21.9575 41.1404 22.5101 39.4399C23.0626 37.739 24.5053 36.5225 26.2751 36.2655L38.0552 34.5537C39.8815 34.2881 41.4594 33.1418 42.2761 31.4872L47.5443 20.8122C48.3358 19.2087 49.9383 18.2126 51.7267 18.2126C53.5151 18.2126 55.1175 19.2087 55.9089 20.8122L61.1774 31.4868C61.994 33.1418 63.5722 34.2881 65.3981 34.5537L77.1782 36.2655C78.9484 36.5225 80.3907 37.739 80.9433 39.4399C81.4958 41.1404 81.0437 42.9725 79.763 44.2209L71.2387 52.5299C69.9174 53.8179 69.3147 55.6728 69.6266 57.4918L71.639 69.2241C71.9415 70.9868 71.2301 72.7347 69.7835 73.786C68.3369 74.8372 66.4549 74.9729 64.8716 74.141L54.3353 68.6015C52.7019 67.7427 50.7515 67.7427 49.1181 68.6015L38.5816 74.141C37.8931 74.5029 37.148 74.6815 36.4068 74.6815Z" fill="#D0A319"/>
<path d="M48.1643 45.2483C48.1643 47.7554 47.1572 49.7883 45.9149 49.7883C44.6726 49.7883 43.6655 47.7554 43.6655 45.2483C43.6655 42.7408 44.6726 40.7082 45.9149 40.7082C47.1572 40.7082 48.1643 42.7408 48.1643 45.2483Z" fill="#242B3C"/>
<path d="M47.328 44.6296C47.328 45.1501 46.9062 45.572 46.3857 45.572C45.8653 45.572 45.4434 45.1501 45.4434 44.6296C45.4434 44.1093 45.8653 43.6871 46.3857 43.6871C46.9062 43.6871 47.328 44.1093 47.328 44.6296Z" fill="white"/>
<path d="M45.6591 46.5702C45.6591 46.8898 45.4002 47.1487 45.0808 47.1487C44.7614 47.1487 44.5024 46.8898 44.5024 46.5702C44.5024 46.251 44.7614 45.9921 45.0808 45.9921C45.4002 45.9921 45.6591 46.251 45.6591 46.5702Z" fill="white"/>
<path d="M58.8693 45.2483C58.8693 47.7554 57.8622 49.7883 56.6198 49.7883C55.3777 49.7883 54.3706 47.7554 54.3706 45.2483C54.3706 42.7408 55.3777 40.7082 56.6198 40.7082C57.8622 40.7082 58.8693 42.7408 58.8693 45.2483Z" fill="#242B3C"/>
<path d="M58.0329 44.6296C58.0329 45.1501 57.611 45.572 57.0904 45.572C56.5698 45.572 56.1479 45.1501 56.1479 44.6296C56.1479 44.1093 56.5698 43.6871 57.0904 43.6871C57.611 43.6871 58.0329 44.1093 58.0329 44.6296Z" fill="white"/>
<path d="M56.3661 46.5702C56.3661 46.8898 56.1072 47.1487 55.7879 47.1487C55.4684 47.1487 55.2095 46.8898 55.2095 46.5702C55.2095 46.251 55.4684 45.9921 55.7879 45.9921C56.1072 45.9921 56.3661 46.251 56.3661 46.5702Z" fill="white"/>
<path d="M46.9946 51.8481H44.8338C44.4639 51.8481 44.2885 51.3959 44.5586 51.1431C44.8361 50.8836 45.2684 50.6707 45.8631 50.6707C46.4671 50.6707 47.001 50.8368 47.2982 51.1719C47.5305 51.4342 47.345 51.8481 46.9946 51.8481Z" fill="#EE8E27"/>
<path d="M57.7008 51.8481H55.5399C55.1701 51.8481 54.9945 51.3959 55.2647 51.1431C55.5423 50.8836 55.9746 50.6707 56.569 50.6707C57.1732 50.6707 57.707 50.8368 58.0042 51.1719C58.2367 51.4342 58.051 51.8481 57.7008 51.8481Z" fill="#EE8E27"/>
<path d="M51.59 57.7751C49.8138 57.7751 48.374 56.3354 48.374 54.5593V54.1545C48.374 53.8791 48.5974 53.6554 48.8729 53.6554H54.307C54.5825 53.6554 54.8058 53.8791 54.8058 54.1545V54.5593C54.8058 56.3354 53.3661 57.7751 51.59 57.7751Z" fill="#E3533E"/>
<path d="M54.8057 54.1543V54.5596C54.8057 54.6135 54.8045 54.6672 54.8014 54.7208C54.802 54.7217 54.8014 54.7229 54.8014 54.7238C54.7395 54.764 53.9744 55.2251 51.5898 55.2251C49.2052 55.2251 48.4404 54.764 48.3783 54.7238C48.3783 54.7229 48.3778 54.7217 48.3783 54.7208C48.3755 54.6672 48.374 54.6135 48.374 54.5596V54.1543C48.374 53.8788 48.5975 53.6558 48.8728 53.6558H54.3066C54.5823 53.6558 54.8057 53.8788 54.8057 54.1543Z" fill="white"/>
</svg>
