<svg width="17" height="20" viewBox="0 0 17 20" fill="none" xmlns="http://www.w3.org/2000/svg">
<path d="M8.28389 2.01687L14.3965 4.73262V8.83681C14.3965 12.7838 11.7943 16.4252 8.28389 17.508C4.7735 16.4252 2.17127 12.7838 2.17127 8.83681V4.73262L8.28389 2.01687ZM8.28389 0.104492L0.424805 3.59742V8.83681C0.424805 13.6832 3.77802 18.2153 8.28389 19.3156C12.7898 18.2153 16.143 13.6832 16.143 8.83681V3.59742L8.28389 0.104492Z" fill="white"/>
<path fill-rule="evenodd" clip-rule="evenodd" d="M4.81324 10.2058C4.53938 9.93199 4.53938 9.48799 4.81324 9.21414C5.08709 8.94028 5.53109 8.94028 5.80495 9.21414L6.5854 9.99459C6.97593 10.3851 7.60909 10.3851 7.99962 9.99459L10.7635 7.23072C11.0373 6.95687 11.4814 6.95687 11.7552 7.23072C12.0291 7.50457 12.0291 7.94857 11.7552 8.22243L7.99962 11.978C7.60909 12.3685 6.97593 12.3685 6.5854 11.978L4.81324 10.2058Z" fill="white"/>
</svg>
