<svg width="16" height="16" viewBox="0 0 16 16" fill="none" xmlns="http://www.w3.org/2000/svg">
<path d="M8 15.2454C5.87827 15.2454 3.84344 14.4552 2.34315 13.0487C0.842855 11.6421 0 9.73448 0 7.74536C0 5.75624 0.842855 3.84858 2.34315 2.44206C3.84344 1.03554 5.87827 0.245361 8 0.245361C10.1217 0.245361 12.1566 1.03554 13.6569 2.44206C15.1571 3.84858 16 5.75624 16 7.74536C16 9.73448 15.1571 11.6421 13.6569 13.0487C12.1566 14.4552 10.1217 15.2454 8 15.2454ZM8 13.7454C9.69739 13.7454 11.3253 13.1132 12.5255 11.988C13.7257 10.8628 14.4 9.33666 14.4 7.74536C14.4 6.15406 13.7257 4.62794 12.5255 3.50272C11.3253 2.3775 9.69739 1.74536 8 1.74536C6.30261 1.74536 4.67475 2.3775 3.47452 3.50272C2.27428 4.62794 1.6 6.15406 1.6 7.74536C1.6 9.33666 2.27428 10.8628 3.47452 11.988C4.67475 13.1132 6.30261 13.7454 8 13.7454ZM7.2 8.05286V3.24536H8.8V7.43786L11.96 10.4004L10.832 11.4579L7.2 8.05286Z" fill="#F9D052"/>
</svg>
