<svg width="18" height="18" viewBox="0 0 18 18" fill="none" xmlns="http://www.w3.org/2000/svg">
<path fill-rule="evenodd" clip-rule="evenodd" d="M0.916992 9.04858C0.916992 10.1248 1.12898 11.1906 1.54084 12.1849C1.95271 13.1792 2.55639 14.0827 3.31742 14.8437C4.07844 15.6047 4.98191 16.2084 5.97625 16.6203C6.97058 17.0322 8.03629 17.2441 9.11255 17.2441C10.1888 17.2441 11.2545 17.0322 12.2489 16.6203C13.2432 16.2084 14.1467 15.6047 14.9077 14.8437C15.6687 14.0827 16.2724 13.1792 16.6843 12.1849C17.0961 11.1906 17.3081 10.1248 17.3081 9.04858C17.3081 6.87499 16.4446 4.79042 14.9077 3.25345C13.3707 1.71649 11.2861 0.853027 9.11255 0.853027C6.93895 0.853027 4.85438 1.71649 3.31742 3.25345C1.78045 4.79042 0.916992 6.87499 0.916992 9.04858ZM16.3439 9.04858C16.3439 10.9665 15.582 12.8058 14.2259 14.1619C12.8698 15.5181 11.0304 16.28 9.11255 16.28C7.19467 16.28 5.35534 15.5181 3.9992 14.1619C2.64305 12.8058 1.88118 10.9665 1.88118 9.04858C1.88118 7.1307 2.64305 5.29138 3.9992 3.93523C5.35534 2.57909 7.19467 1.81721 9.11255 1.81721C11.0304 1.81721 12.8698 2.57909 14.2259 3.93523C15.582 5.29138 16.3439 7.1307 16.3439 9.04858Z" fill="white"/>
<path fill-rule="evenodd" clip-rule="evenodd" d="M5.73828 9.04843C5.73828 13.287 7.12863 16.7619 9.11292 16.7619C11.0972 16.7619 12.4876 13.287 12.4876 9.04843C12.4876 4.80988 11.0972 1.33496 9.11292 1.33496C7.12863 1.33496 5.73828 4.80988 5.73828 9.04843ZM11.5234 9.04843C11.5234 12.7981 10.323 15.7977 9.11292 15.7977C7.90287 15.7977 6.70246 12.7981 6.70246 9.04843C6.70246 5.29872 7.90287 2.29914 9.11292 2.29914C10.323 2.29914 11.5234 5.29872 11.5234 9.04843Z" fill="white"/>
<path d="M3.0713 4.52866L3.7173 3.81323C3.82047 3.90579 3.93038 3.99643 4.04801 4.08417C5.31881 5.03678 7.32431 5.61722 9.51011 5.61722C11.3739 5.61722 13.1133 5.19587 14.3841 4.46984C14.6769 4.30418 14.9535 4.11146 15.2104 3.89422L15.8371 4.627C15.5498 4.87287 15.2239 5.09945 14.8633 5.30579C13.4392 6.12052 11.5349 6.5814 9.51011 6.5814C7.12858 6.5814 4.91867 5.94215 3.4695 4.85551C3.3318 4.75241 3.19893 4.64399 3.0713 4.52866ZM3.0713 13.5804L3.7173 14.2939C3.82047 14.2013 3.93038 14.1107 4.04801 14.0239C5.31881 13.0713 7.32431 12.4909 9.51011 12.4909C11.3739 12.4909 13.1133 12.9113 14.3841 13.6383C14.6936 13.8157 14.9703 14.0085 15.2104 14.2129L15.8371 13.4801C15.5344 13.2239 15.2084 12.9967 14.8633 12.8013C13.4392 11.9876 11.5349 11.5267 9.51011 11.5267C7.12858 11.5267 4.91867 12.166 3.4695 13.2516C3.32873 13.3577 3.19567 13.4676 3.0713 13.5804ZM1.39844 9.53084V8.56666H16.8254V9.53084H1.39844Z" fill="white"/>
</svg>
