<svg width="55" height="55" viewBox="0 0 55 55" fill="none" xmlns="http://www.w3.org/2000/svg">
<circle cx="27.0259" cy="27.2515" r="27.0269" fill="#1B1D1C"/>
<path d="M33.7498 20.4893C32.8754 19.6061 31.8339 18.9058 30.686 18.4293C29.5381 17.9528 28.3069 17.7096 27.064 17.7139C21.8566 17.7139 17.6124 21.9581 17.6124 27.1655C17.6124 28.8346 18.0512 30.4559 18.8714 31.8865L17.5361 36.7888L22.5433 35.4726C23.9262 36.2261 25.4808 36.6266 27.064 36.6266C32.2715 36.6266 36.5156 32.3825 36.5156 27.175C36.5156 24.6476 35.5333 22.2728 33.7498 20.4893ZM27.064 35.0243C25.6525 35.0243 24.2696 34.6429 23.0583 33.9275L22.7722 33.7559L19.7965 34.5379L20.5881 31.6386L20.3974 31.3429C19.6131 30.0906 19.1967 28.6431 19.1956 27.1655C19.1956 22.8355 22.7245 19.3067 27.0545 19.3067C29.1527 19.3067 31.127 20.1269 32.6053 21.6147C33.3372 22.3434 33.9173 23.21 34.3119 24.1645C34.7064 25.119 34.9076 26.1423 34.9038 27.175C34.9229 31.505 31.394 35.0243 27.064 35.0243ZM31.3749 29.1493C31.1365 29.0348 29.9729 28.4626 29.7631 28.3768C29.5437 28.3005 29.3912 28.2623 29.229 28.4912C29.0669 28.7296 28.6186 29.2637 28.4851 29.4163C28.3516 29.5785 28.2085 29.5976 27.9701 29.4736C27.7316 29.3591 26.9686 29.1016 26.0721 28.3005C25.3664 27.671 24.899 26.8985 24.756 26.66C24.6224 26.4216 24.7369 26.2976 24.8609 26.1736C24.9658 26.0687 25.0993 25.897 25.2138 25.7635C25.3282 25.63 25.3759 25.5251 25.4522 25.3725C25.5285 25.2103 25.4903 25.0768 25.4331 24.9624C25.3759 24.8479 24.899 23.6844 24.7083 23.2075C24.5175 22.7497 24.3172 22.8069 24.1742 22.7974H23.7164C23.5542 22.7974 23.3063 22.8546 23.0869 23.093C22.8771 23.3315 22.2667 23.9037 22.2667 25.0673C22.2667 26.2308 23.1155 27.3563 23.23 27.5089C23.3444 27.671 24.899 30.0554 27.2643 31.0759C27.827 31.3238 28.2657 31.4669 28.6091 31.5718C29.1718 31.753 29.6868 31.7244 30.0969 31.6672C30.5547 31.6004 31.4989 31.0949 31.6897 30.5418C31.89 29.9886 31.89 29.5213 31.8232 29.4163C31.7564 29.3114 31.6134 29.2637 31.3749 29.1493Z" fill="white"/>
</svg>
